<svg width="8" height="9" viewBox="0 0 8 9" fill="none" xmlns="http://www.w3.org/2000/svg">
<path d="M6.277 4.9089L4.141 7.10321L4.141 0.555556C4.141 0.536378 4.14005 0.517431 4.13819 0.498751C4.1105 0.218609 3.88021 -1.45121e-07 3.6002 -1.57361e-07C3.30151 -1.70417e-07 3.05941 0.248729 3.05941 0.555556L3.05941 7.10321L0.92339 4.9089C0.712176 4.69197 0.369787 4.69197 0.158574 4.9089C-0.0525963 5.12588 -0.0525963 5.47761 0.158574 5.69459L3.21779 8.8373C3.42896 9.05423 3.7714 9.05423 3.98261 8.8373L7.0418 5.69459C7.0451 5.69121 7.04835 5.68779 7.05154 5.68432C7.07392 5.66014 7.09377 5.63441 7.1111 5.60743C7.2101 5.45339 7.22659 5.25988 7.1606 5.09268C7.1342 5.02583 7.0946 4.96317 7.0418 4.9089C7.0385 4.90552 7.03517 4.90219 7.03181 4.8989C6.81994 4.69201 6.48489 4.69534 6.277 4.9089Z" fill="black"/>
</svg>
