<svg width="36" height="14" viewBox="0 0 36 14" fill="none" xmlns="http://www.w3.org/2000/svg">
<path d="M35.1692 7.73383H0.830747C0.422285 7.73383 0.0922852 7.40383 0.0922852 6.99537C0.0922852 6.58691 0.422285 6.25691 0.830747 6.25691H33.3854L28.9038 1.77537C28.6154 1.48691 28.6154 1.01845 28.9038 0.729988C29.1923 0.441526 29.6608 0.441526 29.9492 0.729988L35.6931 6.47383C35.9054 6.68614 35.9677 7.0023 35.8523 7.27922C35.7369 7.55383 35.4669 7.73383 35.1692 7.73383Z" fill="#008D84"/>
<path d="M29.4184 13.4846C29.2292 13.4846 29.04 13.4131 28.8969 13.2677C28.6084 12.9792 28.6084 12.5108 28.8969 12.2223L34.6477 6.47153C34.9361 6.18307 35.4046 6.18307 35.693 6.47153C35.9815 6.76 35.9815 7.22846 35.693 7.51692L29.9423 13.2677C29.7969 13.4131 29.6077 13.4846 29.4184 13.4846Z" fill="#008D84"/>
</svg>
