<svg width="19" height="20" viewBox="0 0 19 20" fill="none" xmlns="http://www.w3.org/2000/svg">
<path fill-rule="evenodd" clip-rule="evenodd" d="M18.935 15.9641L18.9187 16.0078C18.7634 16.4255 18.607 16.8427 18.4434 17.2569C18.3028 17.6132 18.1573 17.9708 17.9965 18.3177C17.9006 18.5245 17.7482 18.8515 17.5941 19.0139C17.4367 19.1796 17.2634 19.3273 17.0759 19.4537C15.9986 20.1796 14.6517 20.0773 13.4681 19.7434C8.38299 18.3091 1.60524 11.1751 0.242822 5.82224C-0.0744305 4.57579 -0.171362 3.15778 0.518845 2.0236C0.638748 1.82661 0.778763 1.64462 0.935924 1.47919C1.09012 1.31688 1.40095 1.15645 1.59748 1.05559C1.92705 0.886413 2.26687 0.733248 2.60542 0.585162C2.9989 0.413052 3.3952 0.248404 3.79194 0.0848488L3.83343 0.0677394C3.94283 0.0226221 4.05917 -0.000854492 4.17677 -0.000854492C4.51002 -0.000854492 4.8151 0.186529 4.9819 0.49067L6.94784 4.07525C7.07186 4.30134 7.10411 4.56782 7.03998 4.81993C6.97567 5.07275 6.82196 5.28568 6.60658 5.41665C5.91103 5.83962 5.35631 6.49763 5.19235 7.34115C5.03007 8.17615 5.20219 8.98213 5.68818 9.66381C6.26784 10.4769 6.94313 11.2537 7.62569 11.9722C8.30836 12.6907 9.0464 13.4015 9.81896 14.0118C10.4666 14.5234 11.2322 14.7045 12.0255 14.5337C12.8266 14.3612 13.4523 13.7769 13.8538 13.0449C13.978 12.8183 14.1802 12.6565 14.4202 12.5887C14.6596 12.5211 14.9131 12.5549 15.1278 12.6855L18.5332 14.7553C18.9346 14.9992 19.1039 15.51 18.935 15.9641Z" fill="#F39A2E"/>
</svg>
