<svg width="19" height="20" viewBox="0 0 19 20" fill="none" xmlns="http://www.w3.org/2000/svg">
<path fill-rule="evenodd" clip-rule="evenodd" d="M18.935 15.965L18.9187 16.0087C18.7634 16.4264 18.607 16.8436 18.4434 17.2578C18.3028 17.6141 18.1573 17.9717 17.9965 18.3185C17.9006 18.5254 17.7482 18.8524 17.5941 19.0147C17.4367 19.1805 17.2634 19.3282 17.0759 19.4546C15.9986 20.1805 14.6517 20.0782 13.4681 19.7443C8.38299 18.31 1.60524 11.1759 0.242822 5.8231C-0.0744305 4.57665 -0.171362 3.15864 0.518845 2.02446C0.638748 1.82746 0.778763 1.64547 0.935924 1.48004C1.09012 1.31774 1.40095 1.15731 1.59748 1.05645C1.92705 0.887267 2.26687 0.734103 2.60542 0.586017C2.9989 0.413907 3.3952 0.249258 3.79194 0.0857033L3.83343 0.0685939C3.94283 0.0234766 4.05917 0 4.17677 0C4.51002 0 4.8151 0.187383 4.9819 0.491524L6.94784 4.0761C7.07186 4.30219 7.10411 4.56868 7.03998 4.82079C6.97567 5.0736 6.82196 5.28653 6.60658 5.41751C5.91103 5.84048 5.35631 6.49849 5.19235 7.342C5.03007 8.17701 5.20219 8.98298 5.68818 9.66466C6.26784 10.4778 6.94313 11.2546 7.62569 11.973C8.30836 12.6915 9.0464 13.4023 9.81896 14.0126C10.4666 14.5242 11.2322 14.7054 12.0255 14.5346C12.8266 14.3621 13.4523 13.7778 13.8538 13.0458C13.978 12.8192 14.1802 12.6573 14.4202 12.5896C14.6596 12.5219 14.9131 12.5558 15.1278 12.6863L18.5332 14.7561C18.9346 15.0001 19.1039 15.5108 18.935 15.965Z" fill="white"/>
</svg>
