<svg width="20" height="20" viewBox="0 0 20 20" fill="none" xmlns="http://www.w3.org/2000/svg">
<g clip-path="url(#clip0_155_195)">
<path d="M19.8239 3.97266L13.7583 9.99918L19.8239 16.0257C19.9335 15.7965 20.0001 15.5432 20.0001 15.2726V4.72574C20.0001 4.45516 19.9335 4.20184 19.8239 3.97266Z" fill="#F39A2E"/>
<path d="M18.2422 2.9679H1.75785C1.48726 2.9679 1.23394 3.03442 1.00476 3.14407L8.75722 10.8575C9.44269 11.5429 10.5574 11.5429 11.2428 10.8575L18.9953 3.14407C18.7661 3.03442 18.5128 2.9679 18.2422 2.9679Z" fill="#F39A2E"/>
<path d="M0.176172 3.97266C0.0665234 4.20184 0 4.45516 0 4.72574V15.2726C0 15.5432 0.0665234 15.7966 0.176172 16.0257L6.24176 9.99918L0.176172 3.97266Z" fill="#F39A2E"/>
<path d="M12.9297 10.8278L12.0714 11.6861C10.9293 12.8282 9.07078 12.8282 7.92863 11.6861L7.07035 10.8278L1.00476 16.8543C1.23394 16.9639 1.48726 17.0305 1.75785 17.0305H18.2422C18.5128 17.0305 18.7661 16.9639 18.9953 16.8543L12.9297 10.8278Z" fill="#F39A2E"/>
</g>
<defs>
<clipPath id="clip0_155_195">
<rect width="20" height="20" fill="white" transform="translate(0 -0.000854492)"/>
</clipPath>
</defs>
</svg>
