<svg width="24" height="24" viewBox="0 0 24 24" fill="none" xmlns="http://www.w3.org/2000/svg">
<path d="M7.3476 14.5963C7.2508 13.7647 7.2 12.8943 7.2 11.9991C7.2 11.1039 7.2508 10.2335 7.3476 9.40193C5.5852 8.97793 3.9884 8.37673 2.9432 7.75873C2.3392 9.04593 2 10.4827 2 11.9991C2 13.5155 2.3392 14.9523 2.9432 16.2399C3.9884 15.6215 5.5852 15.0203 7.3476 14.5963Z" fill="#F39A2E"/>
<path d="M9.09275 2.43115C6.89235 3.09915 5.01195 4.50396 3.74194 6.35996C4.60235 6.86196 5.95235 7.38516 7.48035 7.77676C7.77475 5.66836 8.30635 3.77355 9.09275 2.43115Z" fill="#F39A2E"/>
<path d="M7.48035 16.2215C5.95275 16.6131 4.60275 17.1363 3.74194 17.6383C5.01195 19.4947 6.89235 20.8991 9.09275 21.5671C8.30635 20.2247 7.77475 18.3299 7.48035 16.2215Z" fill="#F39A2E"/>
<path d="M12 15.5991C11.0108 15.5991 10.0088 15.7059 9.05005 15.8795C9.53485 19.4747 10.6732 21.9991 12 21.9991C13.3264 21.9991 14.4648 19.4755 14.95 15.8811C13.9896 15.7067 12.9868 15.5991 12 15.5991Z" fill="#F39A2E"/>
<path d="M16.6525 14.5963C16.7493 13.7647 16.8001 12.8943 16.8001 11.9991C16.8001 11.1039 16.7493 10.2335 16.6525 9.40193C18.4149 8.97793 20.0117 8.37673 21.0569 7.75873C21.6609 9.04593 22.0001 10.4827 22.0001 11.9991C22.0001 13.5155 21.6609 14.9523 21.0569 16.2399C20.0117 15.6215 18.4149 15.0203 16.6525 14.5963Z" fill="#F39A2E"/>
<path d="M14.9072 2.43115C17.108 3.09915 18.988 4.50396 20.258 6.35996C19.3976 6.86196 18.0476 7.38516 16.5196 7.77676C16.2252 5.66836 15.6936 3.77355 14.9072 2.43115Z" fill="#F39A2E"/>
<path d="M16.5196 16.2215C18.0472 16.6131 19.3972 17.1363 20.258 17.6383C18.988 19.4947 17.108 20.8991 14.9072 21.5671C15.6936 20.2247 16.2252 18.3299 16.5196 16.2215Z" fill="#F39A2E"/>
<path d="M15.1152 9.71753C14.092 9.89433 13.0344 9.99913 12 9.99913C10.9656 9.99913 9.90805 9.89433 8.88485 9.71753C8.82965 10.4507 8.80005 11.2139 8.80005 11.9991C8.80005 12.7843 8.82965 13.5475 8.88485 14.2807C9.90805 14.1039 10.9656 13.9991 12 13.9991C13.0344 13.9991 14.092 14.1039 15.1152 14.2807C15.1704 13.5475 15.2 12.7843 15.2 11.9991C15.2 11.2139 15.1704 10.4507 15.1152 9.71753Z" fill="#F39A2E"/>
<path d="M12 1.99915C10.6732 1.99915 9.53485 4.52355 9.05005 8.11875C10.0088 8.29235 11.0108 8.39915 12 8.39915C12.9892 8.39915 13.9912 8.29235 14.95 8.11875C14.4652 4.52355 13.3268 1.99915 12 1.99915Z" fill="#F39A2E"/>
</svg>
