<svg width="24" height="24" viewBox="0 0 24 24" fill="none" xmlns="http://www.w3.org/2000/svg">
<path d="M7.3476 14.5971C7.2508 13.7655 7.2 12.8951 7.2 11.9999C7.2 11.1047 7.2508 10.2343 7.3476 9.40272C5.5852 8.97872 3.9884 8.37752 2.9432 7.75952C2.3392 9.04672 2 10.4835 2 11.9999C2 13.5163 2.3392 14.9531 2.9432 16.2407C3.9884 15.6223 5.5852 15.0211 7.3476 14.5971Z" fill="white"/>
<path d="M9.09275 2.43201C6.89235 3.10001 5.01195 4.50481 3.74194 6.36081C4.60235 6.86281 5.95235 7.38601 7.48035 7.77761C7.77475 5.66921 8.30635 3.77441 9.09275 2.43201Z" fill="white"/>
<path d="M7.48035 16.2224C5.95275 16.614 4.60275 17.1372 3.74194 17.6392C5.01195 19.4956 6.89235 20.9 9.09275 21.568C8.30635 20.2256 7.77475 18.3308 7.48035 16.2224Z" fill="white"/>
<path d="M12 15.6C11.0108 15.6 10.0088 15.7068 9.05005 15.8804C9.53485 19.4756 10.6732 22 12 22C13.3264 22 14.4648 19.4764 14.95 15.882C13.9896 15.7076 12.9868 15.6 12 15.6Z" fill="white"/>
<path d="M16.6523 14.5971C16.7491 13.7655 16.7999 12.8951 16.7999 11.9999C16.7999 11.1047 16.7491 10.2343 16.6523 9.40272C18.4147 8.97872 20.0115 8.37752 21.0567 7.75952C21.6607 9.04672 21.9999 10.4835 21.9999 11.9999C21.9999 13.5163 21.6607 14.9531 21.0567 16.2407C20.0115 15.6223 18.4147 15.0211 16.6523 14.5971Z" fill="white"/>
<path d="M14.9072 2.43201C17.108 3.10001 18.988 4.50481 20.258 6.36081C19.3976 6.86281 18.0476 7.38601 16.5196 7.77761C16.2252 5.66921 15.6936 3.77441 14.9072 2.43201Z" fill="white"/>
<path d="M16.5196 16.2224C18.0472 16.614 19.3972 17.1372 20.258 17.6392C18.988 19.4956 17.108 20.9 14.9072 21.568C15.6936 20.2256 16.2252 18.3308 16.5196 16.2224Z" fill="white"/>
<path d="M15.1152 9.71838C14.092 9.89518 13.0344 9.99998 12 9.99998C10.9656 9.99998 9.90805 9.89518 8.88485 9.71838C8.82965 10.4516 8.80005 11.2148 8.80005 12C8.80005 12.7852 8.82965 13.5484 8.88485 14.2816C9.90805 14.1048 10.9656 14 12 14C13.0344 14 14.092 14.1048 15.1152 14.2816C15.1704 13.5484 15.2 12.7852 15.2 12C15.2 11.2148 15.1704 10.4516 15.1152 9.71838Z" fill="white"/>
<path d="M12 2C10.6732 2 9.53485 4.5244 9.05005 8.1196C10.0088 8.2932 11.0108 8.4 12 8.4C12.9892 8.4 13.9912 8.2932 14.95 8.1196C14.4652 4.5244 13.3268 2 12 2Z" fill="white"/>
</svg>
