<svg width="24" height="24" viewBox="0 0 24 24" fill="none" xmlns="http://www.w3.org/2000/svg">
<path d="M12 13.9991C13.1046 13.9991 14 13.1037 14 11.9991C14 10.8946 13.1046 9.99915 12 9.99915C10.8954 9.99915 10 10.8946 10 11.9991C10 13.1037 10.8954 13.9991 12 13.9991Z" fill="#F39A2E"/>
<path d="M21.5547 8.16712L12.5547 2.16712C12.3903 2.05774 12.1974 1.99939 12 1.99939C11.8026 1.99939 11.6096 2.05774 11.4453 2.16712L2.44527 8.16712C2.33594 8.2399 2.24203 8.33353 2.16892 8.44263C2.0958 8.55174 2.04491 8.67419 2.01916 8.80298C1.9934 8.93177 1.99329 9.06438 2.01882 9.19321C2.04436 9.32205 2.09504 9.44459 2.16797 9.55382C2.26001 9.68876 2.38435 9.79853 2.52967 9.87311C2.675 9.94769 2.83667 9.98472 2.99997 9.98082V20.9991C2.99997 21.2643 3.10533 21.5187 3.29286 21.7062C3.4804 21.8938 3.73475 21.9991 3.99997 21.9991H20C20.2652 21.9991 20.5195 21.8938 20.7071 21.7062C20.8946 21.5187 21 21.2643 21 20.9991V9.99912C21.2146 9.9991 21.4235 9.93004 21.5958 9.80215C21.7682 9.67425 21.8948 9.49431 21.957 9.28891C22.0192 9.08351 22.0136 8.86355 21.9412 8.66154C21.8687 8.45952 21.7332 8.28618 21.5547 8.16712ZM12.6973 18.7159C12.5114 18.8967 12.2626 18.9983 12.0034 18.9993C11.7441 19.0003 11.4945 18.9006 11.3073 18.7213C11.1729 18.5919 7.99997 15.5103 7.99997 11.9991C7.99997 10.9383 8.4214 9.92084 9.17154 9.17069C9.92169 8.42055 10.9391 7.99912 12 7.99912C13.0608 7.99912 14.0782 8.42055 14.8284 9.17069C15.5785 9.92084 16 10.9383 16 11.9991C16 15.4654 12.832 18.585 12.6973 18.7159Z" fill="#F39A2E"/>
</svg>
