<svg width="24" height="24" viewBox="0 0 24 24" fill="none" xmlns="http://www.w3.org/2000/svg">
<path d="M12 14C13.1046 14 14 13.1046 14 12C14 10.8954 13.1046 10 12 10C10.8954 10 10 10.8954 10 12C10 13.1046 10.8954 14 12 14Z" fill="white"/>
<path d="M21.5547 8.16797L12.5547 2.16797C12.3903 2.0586 12.1974 2.00024 12 2.00024C11.8026 2.00024 11.6096 2.0586 11.4453 2.16797L2.44527 8.16797C2.33594 8.24076 2.24203 8.33438 2.16892 8.44349C2.0958 8.5526 2.04491 8.67505 2.01916 8.80384C1.9934 8.93263 1.99329 9.06523 2.01882 9.19407C2.04436 9.3229 2.09504 9.44544 2.16797 9.55467C2.26001 9.68962 2.38435 9.79938 2.52967 9.87396C2.675 9.94855 2.83667 9.98557 2.99997 9.98167V21C2.99997 21.2652 3.10533 21.5195 3.29286 21.7071C3.4804 21.8946 3.73475 22 3.99997 22H20C20.2652 22 20.5195 21.8946 20.7071 21.7071C20.8946 21.5195 21 21.2652 21 21V9.99997C21.2146 9.99996 21.4235 9.9309 21.5958 9.803C21.7682 9.67511 21.8948 9.49516 21.957 9.28976C22.0192 9.08436 22.0136 8.8644 21.9412 8.66239C21.8687 8.46038 21.7332 8.28703 21.5547 8.16797ZM12.6973 18.7168C12.5114 18.8976 12.2626 18.9991 12.0034 19.0002C11.7441 19.0012 11.4945 18.9015 11.3073 18.7222C11.1729 18.5928 7.99997 15.5112 7.99997 12C7.99997 10.9391 8.4214 9.92169 9.17154 9.17155C9.92169 8.4214 10.9391 7.99997 12 7.99997C13.0608 7.99997 14.0782 8.4214 14.8284 9.17155C15.5785 9.92169 16 10.9391 16 12C16 15.4663 12.832 18.5859 12.6973 18.7168Z" fill="white"/>
</svg>
