<svg width="58" height="58" viewBox="0 0 58 58" fill="none" xmlns="http://www.w3.org/2000/svg">
<g clip-path="url(#clip0_377_2673)">
<path d="M51.4421 32.2559H48.8374C48.478 32.2559 48.1862 31.9642 48.1862 31.6048C48.1862 31.2453 48.478 30.9536 48.8374 30.9536H51.4421C53.9556 30.9536 56.0002 28.909 56.0002 26.3955V6.86049C56.0002 4.34699 53.9556 2.30233 51.4421 2.30233H34.5118C34.1523 2.30233 33.8606 2.01061 33.8606 1.65117C33.8606 1.29172 34.1523 1 34.5118 1H51.4421C54.6731 1 57.3025 3.62941 57.3025 6.86049V26.3955C57.3025 29.6265 54.6731 32.2559 51.4421 32.2559Z" fill="#989898" stroke="#989898"/>
<path d="M16.2791 32.2559H5.86049C2.62941 32.2559 0 29.6265 0 26.3955V6.86049C0 3.62941 2.62941 1 5.86049 1H35.1629C35.5224 1 35.8141 1.29172 35.8141 1.65117C35.8141 2.01061 35.5224 2.30233 35.1629 2.30233H5.86049C3.34699 2.30233 1.30233 4.34699 1.30233 6.86049V26.3955C1.30233 28.909 3.34699 30.9536 5.86049 30.9536H16.2791C16.6386 30.9536 16.9303 31.2453 16.9303 31.6048C16.9303 31.9642 16.6386 32.2559 16.2791 32.2559Z" fill="#989898" stroke="#989898"/>
<path d="M28.0022 46.6305C27.0944 46.6305 25.7635 46.1708 24.9821 45.293C22.6483 43.5349 19.9095 37.1899 19.7949 36.9217L17.241 27.0565C17.0847 26.4535 17.3699 25.8245 17.9208 25.5601C19.063 25.0079 20.1335 24.9011 21.1024 25.2476C22.0909 25.6005 22.9101 26.4249 23.4675 27.6308L24.7463 30.2993V15.3251C24.7463 14.3692 25.1644 13.4641 25.8937 12.8442C26.6243 12.2243 27.5971 11.9586 28.5439 12.1136C30.0911 12.3649 31.258 13.8066 31.258 15.4645V23.7903C31.9665 23.2576 32.8664 23.0362 33.7533 23.1834C34.73 23.3423 35.5544 23.9739 36.0297 24.836C36.117 24.741 36.2134 24.6498 36.3123 24.5651C37.0416 23.9452 38.0132 23.6809 38.9626 23.8345C40.1008 24.0195 41.0333 24.8478 41.4461 25.9326C41.4709 25.9092 41.4956 25.8883 41.5217 25.8662C42.251 25.2463 43.2225 24.9806 44.1719 25.1356C45.7191 25.3869 46.886 26.8286 46.886 28.4865V43.4776C46.886 45.4571 45.9418 46.2086 45.1513 46.4899C44.8114 46.6175 44.4389 46.4339 44.3191 46.0953C44.198 45.7554 44.3751 45.3842 44.7137 45.2631C45.0874 45.1316 45.5836 44.8021 45.5836 43.4789V28.4878C45.5836 27.4602 44.8869 26.572 43.9635 26.421C43.3775 26.3285 42.8097 26.4809 42.3656 26.8586C41.9267 27.2323 41.6766 27.7754 41.6766 28.3484C41.6766 28.7079 41.3849 28.9996 41.0255 28.9996C40.666 28.9996 40.3743 28.7079 40.3743 28.3484V27.1854C40.3743 26.1579 39.6776 25.2697 38.7542 25.1186C38.1669 25.0275 37.6003 25.1785 37.1563 25.5562C36.7174 25.93 36.4673 26.4731 36.4673 27.0461C36.4673 27.4055 36.1756 27.6973 35.8162 27.6973C35.4567 27.6973 35.165 27.4055 35.165 27.0461V26.5343C35.165 25.5067 34.4682 24.6185 33.5449 24.4675C32.9575 24.3763 32.391 24.5274 31.9469 24.9051C31.508 25.2788 31.258 25.8219 31.258 26.3949C31.258 26.7544 30.9663 27.0461 30.6068 27.0461C30.2474 27.0461 29.9557 26.7544 29.9557 26.3949V15.4645C29.9557 14.4369 29.2589 13.5487 28.3356 13.3977C27.7469 13.3052 27.1817 13.4576 26.7376 13.8352C26.2987 14.209 26.0487 14.7521 26.0487 15.3251V33.1696C26.0487 33.4731 25.8377 33.7375 25.5408 33.8039C25.2412 33.8755 24.9404 33.7244 24.8089 33.4509L22.2888 28.1843C21.8773 27.2948 21.316 26.7062 20.6635 26.4744C20.0384 26.2478 19.3039 26.3376 18.4834 26.7335L21.0217 36.5023C21.0295 36.5023 23.7097 42.7092 25.8598 44.341C26.4316 44.9662 27.3992 45.3295 28.0009 45.3295C28.3603 45.3295 28.652 45.6212 28.652 45.9807C28.652 46.3401 28.3616 46.6305 28.0022 46.6305Z" fill="#989898" stroke="#989898"/>
<path d="M46.2345 56.9996C45.875 56.9996 45.5833 56.7079 45.5833 56.3485V49.1856H27.3507V56.3485C27.3507 56.7079 27.0589 56.9996 26.6995 56.9996C26.3401 56.9996 26.0483 56.7079 26.0483 56.3485V49.1856C26.0483 48.4667 26.6318 47.8833 27.3507 47.8833H45.5833C46.3022 47.8833 46.8856 48.4667 46.8856 49.1856V56.3485C46.8856 56.7079 46.5939 56.9996 46.2345 56.9996Z" fill="#989898" stroke="#989898"/>
<path d="M22.1254 21.4175C21.9626 21.4175 21.7998 21.3563 21.6735 21.2352C19.8762 19.5018 18.8865 17.1719 18.8865 14.6741C18.8865 12.1762 19.8775 9.84632 21.6761 8.11162C21.9339 7.86548 22.3468 7.86938 22.5968 8.12985C22.8456 8.38771 22.839 8.80055 22.5786 9.0506C21.0366 10.5353 20.1888 12.533 20.1888 14.6741C20.1888 16.8151 21.0366 18.8129 22.5773 20.2962C22.8364 20.5463 22.8443 20.9591 22.5955 21.217C22.4666 21.3511 22.296 21.4175 22.1254 21.4175Z" fill="#989898" stroke="#989898"/>
<path d="M33.8786 21.4186C33.708 21.4186 33.5374 21.3522 33.4097 21.2193C33.161 20.9615 33.1675 20.5486 33.428 20.2986C34.9699 18.8126 35.8177 16.8148 35.8177 14.6751C35.8177 12.5745 34.996 10.6027 33.5048 9.12458C33.2495 8.87193 33.2469 8.45779 33.4996 8.20383C33.7522 7.94988 34.1677 7.94467 34.4203 8.19862C36.1603 9.92421 37.1188 12.2228 37.1188 14.6738C37.1188 17.1717 36.1277 19.5016 34.3292 21.2363C34.2042 21.3574 34.0414 21.4186 33.8786 21.4186Z" fill="#989898" stroke="#989898"/>
<path d="M32.5707 17.8308C32.4639 17.8308 32.3571 17.8048 32.2568 17.7501C31.9429 17.5756 31.827 17.1796 32.0002 16.8645C32.3675 16.199 32.5602 15.441 32.5602 14.674C32.5602 12.1605 30.5156 10.1158 28.0021 10.1158C25.4886 10.1158 23.4439 12.1605 23.4439 14.674C23.4439 15.4332 23.6341 16.1834 23.9935 16.8463C24.1654 17.1614 24.0482 17.5573 23.7317 17.7292C23.4205 17.8985 23.022 17.7839 22.8488 17.4675C22.3864 16.6157 22.1416 15.6494 22.1416 14.674C22.1416 11.4429 24.771 8.81348 28.0021 8.81348C31.2332 8.81348 33.8626 11.4429 33.8626 14.674C33.8626 15.6598 33.6138 16.634 33.1411 17.4935C33.0213 17.7084 32.7999 17.8308 32.5707 17.8308Z" fill="#989898" stroke="#989898"/>
<path d="M38.845 22.5402C38.72 22.5402 38.595 22.505 38.4843 22.4308C38.186 22.2315 38.104 21.8265 38.3032 21.5282C39.6577 19.4966 40.3739 17.1264 40.3739 14.6741C40.3739 11.3688 39.0872 8.2614 36.7495 5.92371C36.4956 5.66976 36.4956 5.25692 36.7495 5.00297C37.0035 4.74901 37.4163 4.74901 37.6703 5.00297C40.2528 7.58679 41.6763 11.021 41.6763 14.6741C41.6763 17.3842 40.8858 20.0045 39.3868 22.2497C39.2617 22.4386 39.0547 22.5402 38.845 22.5402Z" fill="#989898" stroke="#989898"/>
<path d="M17.6189 23.1873C17.4235 23.1873 17.2282 23.0987 17.1005 22.9294C15.2864 20.5383 14.3279 17.6836 14.3279 14.6739C14.3279 11.0196 15.7513 7.58533 18.3352 5.0015C18.5891 4.74755 19.0019 4.74755 19.2559 5.0015C19.5099 5.25546 19.5099 5.66829 19.2559 5.92225C16.9169 8.25993 15.6302 11.3673 15.6302 14.6739C15.6302 17.3971 16.4976 19.9796 18.1385 22.1428C18.356 22.4293 18.3 22.8369 18.0122 23.0544C17.895 23.1443 17.7569 23.1873 17.6189 23.1873Z" fill="#989898" stroke="#989898"/>
</g>
<defs>
<clipPath id="clip0_377_2673">
<rect width="58" height="58" fill="white"/>
</clipPath>
</defs>
</svg>
