<svg width="66" height="66" viewBox="0 0 66 66" fill="none" xmlns="http://www.w3.org/2000/svg">
<path d="M59.5275 28C58.9105 28 58.3359 27.6021 58.1305 26.9729C54.2913 15.2131 43.9676 6.99995 33.0245 6.99995C21.5855 6.99995 11.4768 14.4237 7.86984 25.4729C7.61365 26.2589 6.78028 26.6849 6.00801 26.4228C5.23648 26.1614 4.81906 25.3124 5.07562 24.5261C9.08309 12.2491 20.3152 4 33.0245 4C45.2181 4 56.6909 13.0576 60.9244 26.0264C61.1809 26.8124 60.7635 27.6618 59.992 27.9231C59.8378 27.9753 59.6813 28 59.5275 28Z" fill="#989898"/>
<path d="M32.9757 63C20.7818 63 9.30907 54.32 5.07562 41.8919C4.81906 41.1387 5.23648 40.3247 6.008 40.0742C6.7799 39.8227 7.61289 40.2313 7.86982 40.9845C11.7087 52.2544 22.0326 60.1251 32.9757 60.1251C44.4146 60.1251 54.5232 53.0109 58.1302 42.4223C58.3867 41.6691 59.2201 41.2608 59.992 41.512C60.7635 41.7625 61.1809 42.5761 60.9244 43.3297C56.9169 55.0948 45.6849 63 32.9757 63Z" fill="#989898"/>
<path d="M61.5 34C59.0186 34 57 31.9814 57 29.5C57 27.0186 59.0186 25 61.5 25C63.9814 25 66 27.0186 66 29.5C66 31.9814 63.9814 34 61.5 34ZM61.5 28C60.6727 28 60 28.6727 60 29.5C60 30.3273 60.6727 31 61.5 31C62.3273 31 63 30.3273 63 29.5C63 28.6727 62.3273 28 61.5 28Z" fill="#989898"/>
<path d="M31.9921 38.9714C29.5266 38.6913 27.7487 36.4578 28.0288 33.9922C28.3088 31.5267 30.5423 29.7488 33.0079 30.0289C35.4734 30.3089 37.2513 32.5425 36.9713 35.008C36.6912 37.4735 34.4577 39.2514 31.9921 38.9714ZM32.6693 33.0097C31.8473 32.9163 31.103 33.5089 31.0096 34.3308C30.9162 35.1528 31.5088 35.8972 32.3307 35.9905C33.1527 36.0839 33.8971 35.4914 33.9904 34.6694C34.0838 33.8474 33.4913 33.1031 32.6693 33.0097Z" fill="#989898"/>
<path d="M4.5 43C2.01863 43 0 40.9814 0 38.5C0 36.0186 2.01863 34 4.5 34C6.98138 34 9 36.0186 9 38.5C9 40.9814 6.98138 43 4.5 43ZM4.5 37C3.67275 37 3 37.6727 3 38.5C3 39.3273 3.67275 40 4.5 40C5.32725 40 6 39.3273 6 38.5C6 37.6727 5.32725 37 4.5 37Z" fill="#989898"/>
</svg>
