<svg width="65" height="65" viewBox="0 0 65 65" fill="none" xmlns="http://www.w3.org/2000/svg">
<g clip-path="url(#clip0_377_2631)">
<path d="M1.20352 53.4276C1.86802 53.4276 2.40703 52.8882 2.40703 52.2241L2.40703 31.9805C2.40703 21.4817 12.6674 12.9381 25.2771 12.9381L30.4438 12.9381C43.0535 12.9381 53.3138 21.4817 53.3138 31.9805L53.3138 49.997L45.8244 42.5027C45.5908 42.2667 45.2826 42.1513 44.9747 42.1513C44.6665 42.1513 44.3583 42.2691 44.1226 42.5027C43.653 42.9724 43.653 43.7377 44.1226 44.2049L54.3806 54.4697L64.6478 44.2021C65.1174 43.7349 65.1174 42.9695 64.6478 42.4999C64.1782 42.0327 63.4152 42.0327 62.9456 42.4999L55.7233 49.7222L55.7233 31.9797C55.7233 20.1499 44.3845 10.5299 30.4458 10.5299L25.2771 10.5299C11.3384 10.5299 -0.000401358 20.1499 -0.000402392 31.9797L-0.000404162 52.2237C1.38053e-07 52.8906 0.541847 53.4276 1.20352 53.4276Z" fill="#989898"/>
<rect x="27.5654" y="44.4444" width="16.8" height="16.8" transform="rotate(-135 27.5654 44.4444)" stroke="#989898" stroke-width="2.2"/>
</g>
<defs>
<clipPath id="clip0_377_2631">
<rect width="65" height="65" fill="white" transform="translate(65 65) rotate(-180)"/>
</clipPath>
</defs>
</svg>
