<svg width="66" height="48" viewBox="0 0 66 48" fill="none" xmlns="http://www.w3.org/2000/svg">
<path d="M60.5 21.7999H58.3C57.4248 21.7999 56.5854 22.1476 55.9665 22.7665C55.3477 23.3853 55 24.2247 55 25.0999V26.1999H52.8V20.6999C52.8 19.8247 52.4523 18.9853 51.8335 18.3664C51.2146 17.7476 50.3752 17.3999 49.5 17.3999H46.2C45.9083 17.3999 45.6285 17.284 45.4222 17.0777C45.2159 16.8714 45.1 16.5916 45.1 16.2999V14.0999C45.1 13.2247 44.7523 12.3853 44.1335 11.7664C43.5146 11.1476 42.6752 10.7999 41.8 10.7999H37.4V7.4999H42.9C43.7752 7.4999 44.6146 7.15223 45.2335 6.53336C45.8523 5.91448 46.2 5.07512 46.2 4.1999C46.2 3.32469 45.8523 2.48532 45.2335 1.86645C44.6146 1.24758 43.7752 0.899902 42.9 0.899902H20.9C20.0248 0.899902 19.1854 1.24758 18.5665 1.86645C17.9477 2.48532 17.6 3.32469 17.6 4.1999C17.6 5.07512 17.9477 5.91448 18.5665 6.53336C19.1854 7.15223 20.0248 7.4999 20.9 7.4999H26.4V10.7999H20.9C20.0248 10.7999 19.1854 11.1476 18.5665 11.7664C17.9477 12.3853 17.6 13.2247 17.6 14.0999C17.6 14.3916 17.4841 14.6714 17.2778 14.8777C17.0715 15.084 16.7917 15.1999 16.5 15.1999H13.2C12.3248 15.1999 11.4854 15.5476 10.8665 16.1664C10.2477 16.7853 9.9 17.6247 9.9 18.4999V22.8999H6.6V18.4999C6.6 17.6247 6.25232 16.7853 5.63345 16.1664C5.01458 15.5476 4.17521 15.1999 3.3 15.1999C2.42479 15.1999 1.58542 15.5476 0.966548 16.1664C0.347678 16.7853 0 17.6247 0 18.4999L0 36.0999C0 36.9751 0.347678 37.8145 0.966548 38.4334C1.58542 39.0522 2.42479 39.3999 3.3 39.3999C4.17521 39.3999 5.01458 39.0522 5.63345 38.4334C6.25232 37.8145 6.6 36.9751 6.6 36.0999V31.6999H9.9V37.1999C9.9 38.0751 10.2477 38.9145 10.8665 39.5334C11.4854 40.1522 12.3248 40.4999 13.2 40.4999H17.7892C18.0809 40.5 18.3607 40.6159 18.5669 40.8222L23.8777 46.133C24.1833 46.4405 24.5468 46.6844 24.9473 46.8503C25.3478 47.0163 25.7773 47.1011 26.2108 47.0999H49.5C50.3752 47.0999 51.2146 46.7522 51.8335 46.1334C52.4523 45.5145 52.8 44.6751 52.8 43.7999V39.3999H55V40.4999C55 41.3751 55.3477 42.2145 55.9665 42.8334C56.5854 43.4522 57.4248 43.7999 58.3 43.7999H60.5C61.9582 43.7982 63.3561 43.2181 64.3872 42.1871C65.4182 41.156 65.9983 39.7581 66 38.2999V27.2999C65.9983 25.8417 65.4182 24.4438 64.3872 23.4127C63.3561 22.3817 61.9582 21.8016 60.5 21.7999ZM19.8 4.1999C19.8 3.90816 19.9159 3.62838 20.1222 3.42209C20.3285 3.2158 20.6083 3.0999 20.9 3.0999H42.9C43.1917 3.0999 43.4715 3.2158 43.6778 3.42209C43.8841 3.62838 44 3.90816 44 4.1999C44 4.49164 43.8841 4.77143 43.6778 4.97772C43.4715 5.18401 43.1917 5.2999 42.9 5.2999H20.9C20.6083 5.2999 20.3285 5.18401 20.1222 4.97772C19.9159 4.77143 19.8 4.49164 19.8 4.1999ZM28.6 7.4999H35.2V10.7999H28.6V7.4999ZM4.4 36.0999C4.4 36.3916 4.28411 36.6714 4.07782 36.8777C3.87153 37.084 3.59174 37.1999 3.3 37.1999C3.00826 37.1999 2.72847 37.084 2.52218 36.8777C2.31589 36.6714 2.2 36.3916 2.2 36.0999V18.4999C2.2 18.2082 2.31589 17.9284 2.52218 17.7221C2.72847 17.5158 3.00826 17.3999 3.3 17.3999C3.59174 17.3999 3.87153 17.5158 4.07782 17.7221C4.28411 17.9284 4.4 18.2082 4.4 18.4999V36.0999ZM6.6 29.4999V25.0999H9.9V29.4999H6.6ZM50.6 43.7999C50.6 44.0916 50.4841 44.3714 50.2778 44.5777C50.0715 44.784 49.7917 44.8999 49.5 44.8999H26.2108C25.9191 44.8998 25.6393 44.7839 25.4331 44.5776L20.1223 39.2668C19.8166 38.9595 19.453 38.7158 19.0525 38.5498C18.6521 38.3839 18.2227 38.2989 17.7892 38.2999H13.2C12.9083 38.2999 12.6285 38.184 12.4222 37.9777C12.2159 37.7714 12.1 37.4916 12.1 37.1999V18.4999C12.1 18.2082 12.2159 17.9284 12.4222 17.7221C12.6285 17.5158 12.9083 17.3999 13.2 17.3999H16.5C17.3752 17.3999 18.2146 17.0522 18.8335 16.4334C19.4523 15.8145 19.8 14.9751 19.8 14.0999C19.8 13.8082 19.9159 13.5284 20.1222 13.3221C20.3285 13.1158 20.6083 12.9999 20.9 12.9999H41.8C42.0917 12.9999 42.3715 13.1158 42.5778 13.3221C42.7841 13.5284 42.9 13.8082 42.9 14.0999V16.2999C42.9 17.1751 43.2477 18.0145 43.8666 18.6334C44.4854 19.2522 45.3248 19.5999 46.2 19.5999H49.5C49.7917 19.5999 50.0715 19.7158 50.2778 19.9221C50.4841 20.1284 50.6 20.4082 50.6 20.6999V43.7999ZM52.8 37.1999V28.3999H55V37.1999H52.8ZM63.8 38.2999C63.8 39.1751 63.4523 40.0145 62.8335 40.6334C62.2146 41.2522 61.3752 41.5999 60.5 41.5999H58.3C58.0083 41.5999 57.7285 41.484 57.5222 41.2777C57.3159 41.0714 57.2 40.7916 57.2 40.4999V25.0999C57.2 24.8082 57.3159 24.5284 57.5222 24.3221C57.7285 24.1158 58.0083 23.9999 58.3 23.9999H60.5C61.3752 23.9999 62.2146 24.3476 62.8335 24.9664C63.4523 25.5853 63.8 26.4247 63.8 27.2999V38.2999Z" fill="#989898"/>
</svg>
