<svg width="65" height="65" viewBox="0 0 65 65" fill="none" xmlns="http://www.w3.org/2000/svg">
<g clip-path="url(#clip0_377_2722)">
<path d="M63.8793 35.8619H58.2759V33.6205C58.2759 32.3827 57.2723 31.3791 56.0345 31.3791H53.7931C52.5553 31.3791 51.5517 32.3827 51.5517 33.6205V35.8619H44.8276V34.7412C44.8243 32.0796 42.9523 29.7862 40.3448 29.2499V26.8964C40.3448 25.6586 39.3412 24.655 38.1034 24.655H35.8621V15.6895H44.8276C46.6843 15.6895 48.1897 14.1841 48.1897 12.3274C48.1897 10.4707 46.6843 8.96533 44.8276 8.96533H20.1724C18.3157 8.96533 16.8103 10.4707 16.8103 12.3274C16.8103 14.1841 18.3157 15.6895 20.1724 15.6895H29.1379V24.655H26.8966C25.6588 24.655 24.6552 25.6586 24.6552 26.8964V29.2499C22.0477 29.7862 20.1757 32.0796 20.1724 34.7412V35.8619H13.4483V33.6205C13.4483 32.3827 12.4447 31.3791 11.2069 31.3791H8.96552C7.72772 31.3791 6.72414 32.3827 6.72414 33.6205V35.8619H1.12069C0.501793 35.8619 0 36.3637 0 36.9826V50.4308C0 51.0497 0.501793 51.5515 1.12069 51.5515H6.72414V53.7929C6.72414 55.0307 7.72772 56.0343 8.96552 56.0343H11.2069C12.4447 56.0343 13.4483 55.0307 13.4483 53.7929V51.5515H20.2846C20.8209 54.159 23.1142 56.031 25.7759 56.0343H39.2241C41.8858 56.031 44.1791 54.159 44.7154 51.5515H51.5517V53.7929C51.5517 55.0307 52.5553 56.0343 53.7931 56.0343H56.0345C57.2723 56.0343 58.2759 55.0307 58.2759 53.7929V51.5515H63.8793C64.4982 51.5515 65 51.0497 65 50.4308V36.9826C65 36.3637 64.4982 35.8619 63.8793 35.8619ZM19.0517 12.3274C19.0517 11.7085 19.5535 11.2067 20.1724 11.2067H44.8276C45.4465 11.2067 45.9483 11.7085 45.9483 12.3274C45.9483 12.9463 45.4465 13.4481 44.8276 13.4481H20.1724C19.5535 13.4481 19.0517 12.9463 19.0517 12.3274ZM31.3793 15.6895H33.6207V24.655H31.3793V15.6895ZM26.8966 26.8964H38.1034V29.1377H26.8966V26.8964ZM2.24138 49.3102V38.1033H6.72414V49.3102H2.24138ZM11.2069 53.7929H8.96552V33.6205H11.2069V53.7929ZM13.4483 38.1033H20.1724V40.3446H16.8103C16.1914 40.3446 15.6897 40.8464 15.6897 41.4653C15.6897 42.0842 16.1914 42.586 16.8103 42.586H20.1724V49.3102H13.4483V38.1033ZM39.2241 53.7929H25.7759C23.9192 53.7929 22.4138 52.2875 22.4138 50.4308V34.7412C22.4138 32.8845 23.9192 31.3791 25.7759 31.3791H39.2241C41.0808 31.3791 42.5862 32.8845 42.5862 34.7412V50.4308C42.5862 52.2875 41.0808 53.7929 39.2241 53.7929ZM44.8276 49.3102V47.0688H48.1897C48.8086 47.0688 49.3103 46.567 49.3103 45.9481C49.3103 45.3292 48.8086 44.8274 48.1897 44.8274H44.8276V38.1033H51.5517V49.3102H44.8276ZM56.0345 53.7929H53.7931V33.6205H56.0345V53.7929ZM62.7586 49.3102H58.2759V38.1033H62.7586V49.3102Z" fill="#989898"/>
<path d="M33.1512 33.8301C32.7616 33.5521 32.2384 33.5521 31.8488 33.8301C31.6037 34.0074 25.7759 38.2433 25.7759 44.8274C25.7759 48.5408 28.7866 51.5515 32.5 51.5515C36.2134 51.5515 39.2242 48.5408 39.2242 44.8274C39.2242 38.2433 33.3963 34.0074 33.1512 33.8301ZM32.5 49.3101C30.0244 49.3101 28.0173 47.303 28.0173 44.8274C28.0173 40.6002 31.1172 37.4028 32.5 36.1869C33.8828 37.4028 36.9828 40.6002 36.9828 44.8274C36.9828 47.303 34.9756 49.3101 32.5 49.3101Z" fill="#989898"/>
</g>
<defs>
<clipPath id="clip0_377_2722">
<rect width="65" height="65" fill="white"/>
</clipPath>
</defs>
</svg>
