<svg width="65" height="65" viewBox="0 0 65 65" fill="none" xmlns="http://www.w3.org/2000/svg">
<path d="M60.6667 11.2497H39.7973C39.1007 10.2468 38.1716 9.42736 37.0896 8.86146C36.0075 8.29557 34.8045 8 33.5833 8C32.3622 8 31.1592 8.29557 30.0771 8.86146C28.995 9.42736 28.066 10.2468 27.3693 11.2497H4.33333C3.18406 11.2497 2.08186 11.7062 1.2692 12.5189C0.456546 13.3315 0 14.4337 0 15.583C0 16.7323 0.456546 17.8345 1.2692 18.6472C2.08186 19.4598 3.18406 19.9164 4.33333 19.9164H27.3693C28.066 20.9193 28.995 21.7387 30.0771 22.3046C31.1592 22.8705 32.3622 23.166 33.5833 23.166C34.8045 23.166 36.0075 22.8705 37.0896 22.3046C38.1716 21.7387 39.1007 20.9193 39.7973 19.9164H60.6667C61.8159 19.9164 62.9181 19.4598 63.7308 18.6472C64.5435 17.8345 65 16.7323 65 15.583C65 14.4337 64.5435 13.3315 63.7308 12.5189C62.9181 11.7062 61.8159 11.2497 60.6667 11.2497ZM4.33333 17.7497C3.7587 17.7497 3.2076 17.5214 2.80127 17.1151C2.39494 16.7088 2.16667 16.1577 2.16667 15.583C2.16667 15.0084 2.39494 14.4573 2.80127 14.051C3.2076 13.6446 3.7587 13.4164 4.33333 13.4164H26.325C25.8989 14.8294 25.8989 16.3367 26.325 17.7497H4.33333ZM33.5833 20.9997C32.512 20.9997 31.4648 20.682 30.574 20.0868C29.6832 19.4916 28.989 18.6457 28.579 17.6559C28.169 16.6661 28.0617 15.577 28.2707 14.5263C28.4797 13.4756 28.9956 12.5104 29.7532 11.7529C30.5107 10.9953 31.4759 10.4794 32.5266 10.2704C33.5773 10.0614 34.6664 10.1687 35.6562 10.5787C36.646 10.9886 37.4919 11.6829 38.0871 12.5737C38.6823 13.4644 39 14.5117 39 15.583C38.9983 17.0191 38.427 18.3958 37.4116 19.4113C36.3961 20.4267 35.0194 20.998 33.5833 20.9997ZM62.1974 17.1138C61.997 17.3157 61.7585 17.4759 61.4957 17.5851C61.233 17.6942 60.9512 17.7502 60.6667 17.7497H40.8417C41.2678 16.3367 41.2678 14.8294 40.8417 13.4164H60.6667C61.0948 13.4169 61.5132 13.5442 61.869 13.7823C62.2249 14.0205 62.5022 14.3586 62.6659 14.7542C62.8297 15.1498 62.8726 15.585 62.7892 16.005C62.7058 16.4249 62.4999 16.8108 62.1974 17.1138Z" fill="#989898"/>
<path d="M60.6667 27.4997H24.6307C23.934 26.4968 23.005 25.6774 21.9229 25.1115C20.8408 24.5456 19.6378 24.25 18.4167 24.25C17.1955 24.25 15.9925 24.5456 14.9104 25.1115C13.8284 25.6774 12.8993 26.4968 12.2027 27.4997H4.33333C3.18406 27.4997 2.08186 27.9562 1.2692 28.7689C0.456546 29.5815 0 30.6837 0 31.833C0 32.9823 0.456546 34.0845 1.2692 34.8971C2.08186 35.7098 3.18406 36.1664 4.33333 36.1664H12.2027C12.8993 37.1693 13.8284 37.9887 14.9104 38.5546C15.9925 39.1205 17.1955 39.416 18.4167 39.416C19.6378 39.416 20.8408 39.1205 21.9229 38.5546C23.005 37.9887 23.934 37.1693 24.6307 36.1664H60.6667C61.8159 36.1664 62.9181 35.7098 63.7308 34.8971C64.5435 34.0845 65 32.9823 65 31.833C65 30.6837 64.5435 29.5815 63.7308 28.7689C62.9181 27.9562 61.8159 27.4997 60.6667 27.4997ZM4.33333 33.9997C3.7587 33.9997 3.2076 33.7714 2.80127 33.3651C2.39494 32.9588 2.16667 32.4077 2.16667 31.833C2.16667 31.2584 2.39494 30.7073 2.80127 30.301C3.2076 29.8946 3.7587 29.6664 4.33333 29.6664H11.1583C10.7322 31.0794 10.7322 32.5867 11.1583 33.9997H4.33333ZM18.4167 37.2497C17.3454 37.2497 16.2981 36.932 15.4073 36.3368C14.5166 35.7416 13.8223 34.8957 13.4123 33.9059C13.0023 32.9161 12.8951 31.827 13.1041 30.7763C13.3131 29.7255 13.829 28.7604 14.5865 28.0029C15.344 27.2453 16.3092 26.7294 17.3599 26.5204C18.4107 26.3114 19.4998 26.4187 20.4895 26.8287C21.4793 27.2386 22.3253 27.9329 22.9205 28.8237C23.5157 29.7144 23.8333 30.7617 23.8333 31.833C23.8316 33.2691 23.2604 34.6458 22.2449 35.6613C21.2295 36.6767 19.8527 37.248 18.4167 37.2497ZM62.1974 33.3638C61.997 33.5657 61.7585 33.7259 61.4957 33.8351C61.233 33.9442 60.9512 34.0002 60.6667 33.9997H25.6804C26.1065 32.5867 26.1065 31.0794 25.6804 29.6664H60.6667C61.0948 29.6669 61.5132 29.7942 61.869 30.0323C62.2249 30.2704 62.5022 30.6086 62.6659 31.0042C62.8297 31.3998 62.8726 31.835 62.7892 32.255C62.7058 32.6749 62.4999 33.0608 62.1974 33.3638Z" fill="#989898"/>
<path d="M60.6667 44.8327H52.7973C52.1007 43.8298 51.1716 43.0104 50.0896 42.4445C49.0075 41.8786 47.8045 41.583 46.5833 41.583C45.3622 41.583 44.1592 41.8786 43.0771 42.4445C41.995 43.0104 41.066 43.8298 40.3693 44.8327H4.33333C3.18406 44.8327 2.08186 45.2892 1.2692 46.1019C0.456546 46.9146 0 48.0168 0 49.166C0 50.3153 0.456546 51.4175 1.2692 52.2302C2.08186 53.0428 3.18406 53.4994 4.33333 53.4994H40.3693C41.066 54.5023 41.995 55.3217 43.0771 55.8876C44.1592 56.4535 45.3622 56.749 46.5833 56.749C47.8045 56.749 49.0075 56.4535 50.0896 55.8876C51.1716 55.3217 52.1007 54.5023 52.7973 53.4994H60.6667C61.8159 53.4994 62.9181 53.0428 63.7308 52.2302C64.5435 51.4175 65 50.3153 65 49.166C65 48.0168 64.5435 46.9146 63.7308 46.1019C62.9181 45.2892 61.8159 44.8327 60.6667 44.8327ZM4.33333 51.3327C3.7587 51.3327 3.2076 51.1044 2.80127 50.6981C2.39494 50.2918 2.16667 49.7407 2.16667 49.166C2.16667 48.5914 2.39494 48.0403 2.80127 47.634C3.2076 47.2276 3.7587 46.9994 4.33333 46.9994H39.325C38.8989 48.4124 38.8989 49.9197 39.325 51.3327H4.33333ZM46.5833 54.5827C45.512 54.5827 44.4648 54.265 43.574 53.6698C42.6832 53.0746 41.989 52.2287 41.579 51.2389C41.169 50.2491 41.0617 49.16 41.2707 48.1093C41.4798 47.0586 41.9956 46.0934 42.7532 45.3359C43.5107 44.5783 44.4759 44.0624 45.5266 43.8534C46.5773 43.6444 47.6664 43.7517 48.6562 44.1617C49.646 44.5717 50.4919 45.2659 51.0871 46.1567C51.6823 47.0475 52 48.0947 52 49.166C51.9983 50.6021 51.427 51.9788 50.4116 52.9943C49.3961 54.0097 48.0194 54.581 46.5833 54.5827ZM62.1974 50.6968C61.997 50.8987 61.7585 51.0589 61.4957 51.1681C61.233 51.2772 60.9512 51.3332 60.6667 51.3327H53.8417C54.2678 49.9197 54.2678 48.4124 53.8417 46.9994H60.6667C61.0948 46.9999 61.5132 47.1272 61.869 47.3653C62.2249 47.6035 62.5022 47.9417 62.6659 48.3372C62.8297 48.7328 62.8726 49.1681 62.7892 49.588C62.7058 50.0079 62.4999 50.3938 62.1974 50.6968Z" fill="#989898"/>
</svg>
