<svg width="66" height="66" viewBox="0 0 66 66" fill="none" xmlns="http://www.w3.org/2000/svg">
<g clip-path="url(#clip0_377_2704)">
<path d="M33 0C26.4732 0 20.093 1.93542 14.6662 5.5615C9.23937 9.18759 5.00968 14.3415 2.51199 20.3714C0.0142983 26.4014 -0.639212 33.0366 0.634101 39.438C1.90741 45.8394 5.05036 51.7194 9.66549 56.3345C14.2806 60.9497 20.1607 64.0926 26.562 65.3659C32.9634 66.6392 39.5986 65.9857 45.6286 63.488C51.6585 60.9903 56.8124 56.7606 60.4385 51.3338C64.0646 45.907 66 39.5268 66 33C65.9901 24.2509 62.5101 15.863 56.3236 9.67645C50.137 3.4899 41.7491 0.00993515 33 0ZM33 63.9375C26.8812 63.9375 20.8997 62.123 15.8121 58.7236C10.7244 55.3241 6.75908 50.4924 4.41749 44.8393C2.07591 39.1862 1.46324 32.9657 2.65697 26.9644C3.8507 20.9631 6.79721 15.4506 11.1239 11.1239C15.4506 6.7972 20.9631 3.85069 26.9644 2.65696C32.9657 1.46323 39.1862 2.07589 44.8393 4.41748C50.4924 6.75906 55.3242 10.7244 58.7236 15.812C62.1231 20.8997 63.9375 26.8811 63.9375 33C63.9282 41.2023 60.6658 49.066 54.8659 54.8659C49.066 60.6658 41.2023 63.9282 33 63.9375Z" fill="#989898"/>
<path d="M52.7297 13.3735C52.713 13.3541 52.7068 13.3297 52.6885 13.3116C52.6701 13.2934 52.6458 13.287 52.6266 13.2703C47.4165 8.07422 40.3586 5.15625 33.0003 5.15625C25.642 5.15625 18.584 8.07422 13.3739 13.2703C13.3545 13.287 13.3302 13.2932 13.3121 13.3116C13.2939 13.3299 13.2875 13.3543 13.2708 13.3735C8.06649 18.5939 5.14798 25.6671 5.15676 33.0385C5.16554 40.4099 8.10089 47.4762 13.3176 52.6842C13.5111 52.8772 13.7733 52.9855 14.0467 52.9854C14.32 52.9852 14.5821 52.8765 14.7753 52.6832L19.1478 48.3107C19.3412 48.1173 19.4498 47.855 19.4498 47.5815C19.4498 47.308 19.3412 47.0458 19.1478 46.8524C16.1264 43.8363 14.1733 39.9156 13.5857 35.6872C12.9981 31.4587 13.8082 27.154 15.8927 23.4284C17.9772 19.7028 21.2219 16.7604 25.133 15.0489C29.044 13.3375 33.4071 12.9508 37.5582 13.9478L32.3672 24.7819C30.5226 24.9213 28.7782 25.6758 27.4134 26.9246C26.0487 28.1734 25.1426 29.8441 24.8404 31.6691C24.5381 33.4941 24.8572 35.3677 25.7465 36.9898C26.6358 38.6118 28.0439 39.8885 29.7451 40.6151C31.4462 41.3417 33.3421 41.4763 35.1288 40.9972C36.9156 40.5182 38.4898 39.4532 39.5993 37.973C40.7088 36.4929 41.2894 34.6831 41.2479 32.8337C41.2065 30.9843 40.5455 29.2023 39.3708 27.7733L43.6018 16.5318C46.0624 18.1134 48.1374 20.2263 49.6741 22.7152C51.2109 25.2041 52.1704 28.0057 52.4823 30.9142C52.7941 33.8226 52.4502 36.7639 51.476 39.522C50.5017 42.2801 48.9218 44.7848 46.8524 46.8522C46.6591 47.0456 46.5504 47.3078 46.5504 47.5813C46.5504 47.8548 46.6591 48.1171 46.8524 48.3105L51.2249 52.683C51.4181 52.8761 51.6801 52.9847 51.9533 52.9849C52.2265 52.9851 52.4886 52.8769 52.6821 52.684C57.899 47.4761 60.8346 40.4099 60.8435 33.0384C60.8523 25.667 57.9341 18.5939 52.7297 13.3735ZM18.4581 16.9991L15.525 14.066C20.0175 9.90424 25.8495 7.48498 31.9688 7.24474V11.3958C26.9495 11.6304 22.1701 13.6125 18.4581 16.9991ZM16.9764 47.5641L14.0594 50.4816C9.89434 45.991 7.48332 40.1521 7.26656 34.031H11.3916C11.6097 39.0572 13.5864 43.847 16.9764 47.5641ZM11.3961 31.9685H7.245C7.4852 25.8492 9.90446 20.0172 14.0663 15.5246L16.9994 18.4574C13.6127 22.1696 11.6306 26.9491 11.3961 31.9685ZM35.9689 30.9565C35.8735 31.1975 35.7313 31.4173 35.5504 31.603C35.3696 31.7888 35.1537 31.9368 34.9153 32.0386C34.6768 32.1404 34.4206 32.1939 34.1613 32.196C33.9021 32.1982 33.645 32.1489 33.4049 32.051C33.1655 31.9487 32.9493 31.799 32.7693 31.6108C32.5894 31.4226 32.4494 31.1999 32.3578 30.9562C32.2663 30.7124 32.225 30.4527 32.2366 30.1925C32.2482 29.9324 32.3124 29.6773 32.4252 29.4427C34.2779 25.5637 32.7059 28.8475 40.4517 12.6809C40.5805 12.4211 40.8039 12.2204 41.0759 12.1198C41.3479 12.0193 41.6481 12.0265 41.9149 12.1401C42.1758 12.2554 42.383 12.4658 42.4943 12.7285C42.6057 12.9911 42.6128 13.2863 42.5142 13.554C42.5142 13.554 36.1444 30.4901 35.9689 30.9565ZM33.0001 39.1873C31.5103 39.1878 30.0703 38.6506 28.945 37.6743C27.8196 36.6981 27.0844 35.3484 26.8745 33.8735C26.6647 32.3986 26.9942 30.8974 27.8026 29.646C28.611 28.3946 29.8439 27.477 31.2747 27.062L30.5615 28.5505C30.3265 29.0359 30.1933 29.5642 30.17 30.103C30.1467 30.6418 30.2338 31.1796 30.426 31.6835C30.6179 32.1858 30.9083 32.6448 31.28 33.0334C31.6518 33.422 32.0973 33.7324 32.5907 33.9465L32.5927 33.9471L32.5952 33.9484C33.0921 34.1544 33.6251 34.2591 34.163 34.2562C34.7009 34.2533 35.2328 34.143 35.7275 33.9318C36.2222 33.7205 36.6697 33.4125 37.0437 33.0259C37.4177 32.6393 37.7107 32.1819 37.9055 31.6805L38.4836 30.1366C38.9766 31.0795 39.218 32.1336 39.1845 33.197C39.151 34.2605 38.8437 35.2973 38.2924 36.2073C37.741 37.1172 36.9643 37.8696 36.0372 38.3916C35.1101 38.9137 34.064 39.1877 33.0001 39.1873ZM42.7154 10.2358C42.3184 10.0698 41.8922 9.98489 41.4619 9.98612C41.0316 9.98735 40.606 10.0747 40.2099 10.2429C39.8139 10.4112 39.4556 10.657 39.156 10.9659C38.8565 11.2748 38.6217 11.6405 38.4657 12.0415C37.0149 11.6652 35.5286 11.4421 34.0313 11.376V7.24474C40.1506 7.48496 45.9827 9.90421 50.4752 14.066L47.5613 16.9798C46.5667 16.0743 45.4895 15.2638 44.3438 14.5591C44.5298 14.1697 44.6352 13.7468 44.6536 13.3157C44.672 12.8846 44.6031 12.4542 44.451 12.0504C44.2989 11.6466 44.0667 11.2777 43.7685 10.9658C43.4702 10.654 43.112 10.4057 42.7154 10.2358ZM49.0154 18.4427L51.9338 15.5242C56.0957 20.0169 58.515 25.8491 58.7551 31.9685H54.6228C54.3812 26.9455 52.3987 22.1632 49.0154 18.4427ZM51.9411 50.4816L49.0227 47.5641C52.4134 43.8473 54.3907 39.0574 54.6091 34.031H58.7336C58.517 40.152 56.1061 45.9909 51.9411 50.4816Z" fill="#989898"/>
<path d="M41.25 51.5625H24.75C24.4765 51.5625 24.2142 51.6711 24.0208 51.8645C23.8274 52.0579 23.7188 52.3202 23.7188 52.5938V56.7188C23.7188 56.9923 23.8274 57.2546 24.0208 57.448C24.2142 57.6414 24.4765 57.75 24.75 57.75H41.25C41.5235 57.75 41.7858 57.6414 41.9792 57.448C42.1726 57.2546 42.2812 56.9923 42.2812 56.7188V52.5938C42.2812 52.3202 42.1726 52.0579 41.9792 51.8645C41.7858 51.6711 41.5235 51.5625 41.25 51.5625ZM25.7812 53.625H31.9688V55.6875H25.7812V53.625ZM40.2188 55.6875H34.0312V53.625H40.2188V55.6875Z" fill="#989898"/>
</g>
<defs>
<clipPath id="clip0_377_2704">
<rect width="66" height="66" fill="white"/>
</clipPath>
</defs>
</svg>
