<svg width="67" height="67" viewBox="0 0 67 67" fill="none" xmlns="http://www.w3.org/2000/svg">
<g clip-path="url(#clip0_377_2620)">
<path d="M34.3438 19.866C33.9777 19.2881 33.0221 19.2881 32.6559 19.866C31.4686 21.7378 30.2752 23.296 29.121 24.8032C26.2489 28.5548 23.7681 31.7945 23.7681 37.2426C23.7681 42.9528 28.1336 47.5981 33.4998 47.5981C38.866 47.5981 43.2314 42.9528 43.2314 37.2426C43.2314 31.7882 40.7385 28.5334 37.8517 24.7641C36.704 23.2654 35.5165 21.7152 34.3438 19.866ZM33.4999 45.5988C29.2363 45.5988 25.7672 41.85 25.7672 37.2423C25.7672 32.4717 27.9478 29.6239 30.7088 26.0187C31.579 24.882 32.5384 23.6282 33.5003 22.2177C34.4502 23.6093 35.4018 24.8522 36.2652 25.9791C39.0402 29.6029 41.2325 32.4652 41.2325 37.2418C41.2325 41.8503 37.7635 45.5988 33.4999 45.5988Z" fill="#989898" stroke="#989898" stroke-width="0.4"/>
<path d="M35.2329 39.944C34.7797 40.3725 34.1796 40.611 33.556 40.6107C33.2931 40.5961 33.0351 40.6857 32.8379 40.8601C32.6408 41.0346 32.5203 41.2797 32.5028 41.5424C32.4675 42.0673 32.8424 42.6108 33.5922 42.6108C34.7006 42.6001 35.7653 42.1767 36.5784 41.4233C37.682 40.3906 38.2417 38.8161 38.2417 36.7434C38.2432 36.6111 38.2185 36.4799 38.1689 36.3574C38.1193 36.2348 38.046 36.1232 37.953 36.0292C37.86 35.9352 37.7493 35.8605 37.6273 35.8096C37.5053 35.7587 37.3744 35.7324 37.2422 35.7324C37.11 35.7324 36.979 35.7587 36.857 35.8096C36.735 35.8605 36.6243 35.9352 36.5314 36.0292C36.4384 36.1232 36.365 36.2348 36.3155 36.3574C36.2659 36.4799 36.2412 36.6111 36.2427 36.7434C36.2427 38.2256 35.903 39.3022 35.2329 39.944Z" fill="#989898" stroke="#989898" stroke-width="0.4"/>
<path d="M33.4999 14.1665C22.8394 14.1665 14.1663 22.8397 14.1663 33.5001C14.1663 44.1606 22.8394 52.8338 33.4999 52.8338C44.1604 52.8338 52.8335 44.1606 52.8335 33.5C52.8335 22.8394 44.1604 14.1665 33.4999 14.1665ZM33.4999 50.8347C23.9414 50.8347 16.1653 43.0586 16.1653 33.5001C16.1653 23.9417 23.9414 16.1656 33.4999 16.1656C43.0583 16.1656 50.8345 23.9417 50.8345 33.5C50.8345 43.0583 43.0583 50.8347 33.4999 50.8347Z" fill="#989898" stroke="#989898" stroke-width="0.4"/>
<path d="M66.446 23.8402C65.7575 21.4726 64.8061 19.1895 63.6097 17.0335C63.5198 16.8687 63.385 16.7329 63.2209 16.6416C63.0569 16.5504 62.8703 16.5076 62.6829 16.5181L53.1801 17.0091C52.2203 15.8412 51.153 14.766 49.9923 13.7976L50.4819 4.30057C50.4916 4.11232 50.4479 3.92516 50.3559 3.76066C50.2638 3.59616 50.1272 3.46102 49.9616 3.37082C47.8034 2.18794 45.5227 1.24373 43.16 0.554885C42.98 0.50282 42.7889 0.502534 42.6088 0.55406C42.4286 0.605585 42.2666 0.706836 42.1413 0.846206L35.7772 7.90697C34.27 7.77261 32.7537 7.77589 31.2471 7.91677L24.858 0.845176C24.7324 0.706502 24.5705 0.605798 24.3906 0.554488C24.2107 0.503178 24.02 0.503316 23.8401 0.554885C21.4722 1.24271 19.1888 2.19382 17.0328 3.3904C16.8686 3.48093 16.7331 3.61586 16.642 3.77976C16.5508 3.94366 16.5077 4.12991 16.5174 4.31719L17.0089 13.8196C15.841 14.7797 14.7658 15.8474 13.7975 17.0084L4.30037 16.5181C4.11201 16.5077 3.92457 16.5511 3.75994 16.6432C3.5953 16.7353 3.46027 16.8723 3.37061 17.0383C2.18789 19.1967 1.24368 21.4774 0.554682 23.8402C0.502798 24.0202 0.502603 24.2112 0.554119 24.3913C0.605634 24.5714 0.706783 24.7334 0.846003 24.8587L7.90613 31.2225C7.77169 32.7297 7.7751 34.246 7.91631 35.7526L0.844973 42.142C0.706162 42.2675 0.605362 42.4295 0.554042 42.6094C0.502723 42.7894 0.502944 42.9801 0.554682 43.1599C1.2428 45.5278 2.1939 47.8111 3.3902 49.9673C3.48054 50.1317 3.61543 50.2672 3.77938 50.3584C3.94332 50.4496 4.12967 50.4926 4.31699 50.4826L13.8198 49.9911C14.7797 51.1588 15.847 52.234 17.0077 53.2023L16.5181 62.6997C16.5082 62.888 16.5519 63.0752 16.6439 63.2397C16.7359 63.4042 16.8726 63.5393 17.0382 63.6295C19.1965 64.8124 21.4772 65.7568 23.84 66.446C24.02 66.4979 24.211 66.4981 24.3911 66.4466C24.5712 66.3951 24.7332 66.2939 24.8585 66.1547L31.2228 59.0939C32.7299 59.2285 34.2462 59.2252 35.7527 59.0841L42.1418 66.1555C42.2673 66.2943 42.4292 66.3952 42.6092 66.4465C42.7891 66.4978 42.9799 66.4976 43.1597 66.4459C45.5275 65.7577 47.8109 64.8065 49.967 63.6103C50.1313 63.5197 50.2667 63.3848 50.3578 63.2209C50.449 63.057 50.4922 62.8707 50.4824 62.6835L49.9909 53.1807C51.1587 52.2206 52.2339 51.1531 53.2025 49.9924L62.6995 50.4829C62.8882 50.4952 63.0763 50.4526 63.2413 50.3603C63.4063 50.2679 63.541 50.1298 63.6292 49.9626C64.8123 47.8041 65.7567 45.5232 66.446 43.1602C66.4978 42.9801 66.498 42.7891 66.4464 42.609C66.3949 42.4289 66.2937 42.2669 66.1545 42.1415L59.0937 35.7774C59.2282 34.2702 59.2248 32.7539 59.0836 31.2473L66.1549 24.8582C66.294 24.7329 66.395 24.571 66.4465 24.391C66.4979 24.211 66.4978 24.0201 66.446 23.8402ZM57.3282 30.1434C57.2208 30.2507 57.1392 30.381 57.0898 30.5245C57.0403 30.668 57.0242 30.8209 57.0426 30.9716C57.239 32.6686 57.2441 34.3823 57.0578 36.0805C57.0415 36.237 57.0625 36.3952 57.1189 36.5421C57.1754 36.689 57.2658 36.8205 57.3828 36.9258L64.3458 43.2031C63.7772 45.0144 63.0483 46.7713 62.1675 48.4531L52.8028 47.9695C52.6454 47.9624 52.4884 47.9922 52.3445 48.0564C52.2005 48.1206 52.0735 48.2175 51.9736 48.3394C50.9093 49.6709 49.6948 50.8751 48.3543 51.928C48.2266 52.0302 48.1251 52.1614 48.0582 52.3105C47.9912 52.4597 47.9607 52.6227 47.9692 52.786L48.4534 62.1557C46.7735 63.0449 45.0156 63.778 43.2019 64.3461L36.8568 57.3275C36.7641 57.2346 36.6539 57.1609 36.5326 57.1107C36.4114 57.0605 36.2814 57.0346 36.1501 57.0347C36.1095 57.0347 36.0689 57.0371 36.0286 57.0419C34.3317 57.2383 32.6181 57.2433 30.9201 57.0566C30.7635 57.0408 30.6054 57.062 30.4585 57.1184C30.3116 57.1749 30.18 57.2651 30.0744 57.3817L23.797 64.3458C21.9857 63.7775 20.2288 63.0488 18.547 62.1683L19.0306 52.8025C19.0388 52.6448 19.0096 52.4873 18.9452 52.3431C18.8808 52.1989 18.7831 52.072 18.6601 51.9729C17.3286 50.9091 16.1246 49.6949 15.072 48.3545C14.9705 48.226 14.8395 48.1239 14.6902 48.0569C14.5408 47.9898 14.3775 47.9598 14.214 47.9694L4.84461 48.4536C3.95542 46.7737 3.22222 45.0159 2.65423 43.2021L9.66217 36.8672C9.773 36.7599 9.85745 36.6283 9.90886 36.4828C9.96028 36.3374 9.97728 36.182 9.95852 36.0288C9.76217 34.3316 9.75712 32.6177 9.94344 30.9194C9.95973 30.7629 9.93877 30.6047 9.88227 30.4577C9.82578 30.3108 9.73535 30.1794 9.61836 30.0741L2.65423 23.7972C3.22279 21.9858 3.95172 20.2287 4.83237 18.5468L14.1976 19.0306C14.3556 19.0418 14.5139 19.0138 14.6586 18.9493C14.8033 18.8848 14.9299 18.7856 15.0272 18.6606C16.0913 17.329 17.3055 16.1247 18.6457 15.0715C18.7734 14.9694 18.8749 14.8384 18.9418 14.6892C19.0088 14.5401 19.0392 14.3772 19.0307 14.214L18.5466 4.84469C20.2263 3.95525 21.9842 3.22204 23.798 2.6543L30.1432 9.67242C30.2504 9.77995 30.3807 9.86157 30.5242 9.91105C30.6678 9.96054 30.8207 9.97658 30.9714 9.95795C32.6683 9.76166 34.3818 9.75678 36.0798 9.94339C36.2364 9.96013 36.3948 9.93938 36.5419 9.88286C36.689 9.82634 36.8205 9.73566 36.9256 9.61831L43.2029 2.6543C45.014 3.22299 46.7709 3.95169 48.4529 4.8318L47.9694 14.1972C47.9612 14.355 47.9905 14.5124 48.0549 14.6567C48.1193 14.8009 48.2169 14.9278 48.3398 15.027C49.6713 16.091 50.8755 17.3052 51.9285 18.6454C52.0296 18.7741 52.1605 18.8764 52.3098 18.9434C52.4592 19.0105 52.6225 19.0404 52.7859 19.0305L62.1556 18.5468C63.0448 20.2267 63.778 21.9845 64.346 23.7982L57.3282 30.1434Z" fill="#989898" stroke="#989898" stroke-width="0.4"/>
</g>
<defs>
<clipPath id="clip0_377_2620">
<rect width="67" height="67" fill="white"/>
</clipPath>
</defs>
</svg>
