<svg width="66" height="66" viewBox="0 0 66 66" fill="none" xmlns="http://www.w3.org/2000/svg">
<g clip-path="url(#clip0_377_2666)">
<path d="M50.4708 22.4041C49.9345 21.8679 49.0627 21.8679 48.5265 22.4041L30.25 40.6806L20.2207 30.6541C19.6845 30.1179 18.8127 30.1179 18.2765 30.6541C17.7402 31.1904 17.7402 32.0622 18.2765 32.5984L29.2764 43.5984C29.546 43.8651 29.8979 43.9999 30.2499 43.9999C30.602 43.9999 30.9539 43.8652 31.2207 43.5984L50.4707 24.3484C51.007 23.8121 51.007 22.9404 50.4708 22.4041Z" fill="#989898"/>
<path d="M60.8932 8.30772L33.3933 0.0577178C33.1348 -0.0192393 32.8626 -0.0192393 32.604 0.0577178L5.10404 8.30772C4.52371 8.48097 4.125 9.01722 4.125 9.62501V39.8751C4.125 52.0356 22.6655 62.8513 32.593 65.9395C32.725 65.9808 32.8626 66 33 66C33.1374 66 33.275 65.9808 33.407 65.9395C43.3345 62.8485 61.875 52.0354 61.875 39.8749V9.62501C61.875 9.01722 61.4763 8.48367 60.8932 8.30772ZM59.125 39.8749C59.125 49.5301 43.8268 59.6832 33 63.1839C22.1733 59.6832 6.87496 49.5301 6.87496 39.8749V10.648L33 2.81051L59.125 10.648V39.8749Z" fill="#989898"/>
</g>
<defs>
<clipPath id="clip0_377_2666">
<rect width="66" height="66" fill="white"/>
</clipPath>
</defs>
</svg>
