<svg width="65" height="65" viewBox="0 0 65 65" fill="none" xmlns="http://www.w3.org/2000/svg">
<g clip-path="url(#clip0_377_2635)">
<mask id="mask0_377_2635" style="mask-type:luminance" maskUnits="userSpaceOnUse" x="0" y="0" width="65" height="65">
<path d="M0 7.62939e-06H65V65H0V7.62939e-06Z" fill="white"/>
</mask>
<g mask="url(#mask0_377_2635)">
<path d="M0.952148 52.3542V56.272C0.952148 59.1919 3.31982 61.5596 6.24101 61.5596H20.1259C23.0458 61.5596 25.4135 59.1919 25.4135 56.272V8.72802C25.4135 5.8081 23.0458 3.44043 20.1259 3.44043H6.24101C3.31982 3.44043 0.952148 5.8081 0.952148 8.72802V48.5456" stroke="#989898" stroke-width="2.4" stroke-miterlimit="10" stroke-linecap="round" stroke-linejoin="round"/>
<path d="M25.4141 41.5225C28.9392 41.5225 31.9899 39.4997 33.4747 36.5528H43.3101V28.4471H33.4747C31.9899 25.5 28.9392 23.4772 25.4141 23.4772" stroke="#989898" stroke-width="2.4" stroke-miterlimit="10" stroke-linecap="round" stroke-linejoin="round"/>
<path d="M45.5894 25.643C44.3304 25.643 43.3096 26.6637 43.3096 27.9228V37.0766C43.3096 38.3356 44.3304 39.3564 45.5894 39.3564C46.8484 39.3564 47.8691 38.3356 47.8691 37.0766V27.9228C47.8691 26.6637 46.8484 25.643 45.5894 25.643Z" stroke="#989898" stroke-width="2.4" stroke-miterlimit="10" stroke-linecap="round" stroke-linejoin="round"/>
<path d="M50.1498 23.1251C48.8908 23.1251 47.8701 24.1458 47.8701 25.4048V39.5948C47.8701 40.8539 48.8908 41.8745 50.1498 41.8745C51.4088 41.8745 52.4296 40.8539 52.4296 39.5948V25.4048C52.4296 24.1458 51.4088 23.1251 50.1498 23.1251Z" stroke="#989898" stroke-width="2.4" stroke-miterlimit="10" stroke-linecap="round" stroke-linejoin="round"/>
<path d="M56.9876 29.556V42.5725C56.9876 43.2021 56.7324 43.7722 56.3198 44.1848C55.9072 44.5974 55.3385 44.8525 54.7088 44.8525C53.4494 44.8525 52.4287 43.8318 52.4287 42.5725V22.4275C52.4287 21.1682 53.4494 20.1475 54.7088 20.1475C55.9669 20.1475 56.9876 21.1682 56.9876 22.4275V25.7474" stroke="#989898" stroke-width="2.4" stroke-miterlimit="10" stroke-linecap="round" stroke-linejoin="round"/>
<path d="M56.9883 42.5723H64.0481V22.4273H56.9883" stroke="#989898" stroke-width="2.4" stroke-miterlimit="10" stroke-linecap="round" stroke-linejoin="round"/>
<path d="M7.17334 3.44023C6.48271 5.69365 4.9707 6.48711 4.9707 9.96562C4.9707 14.4725 7.50977 14.4725 7.50977 18.9793C7.50977 23.4849 4.9707 23.4849 4.9707 27.9917C4.9707 32.4985 7.50977 32.4985 7.50977 37.0054C7.50977 41.5122 4.9707 41.5122 4.9707 46.019C4.9707 50.5259 7.50977 50.5259 7.50977 55.034C7.50977 58.4706 6.03203 59.2869 5.33125 61.4807V61.4819" stroke="#989898" stroke-width="2.4" stroke-miterlimit="10" stroke-linecap="round" stroke-linejoin="round"/>
<path d="M21.035 3.51787V3.51914C20.3342 5.71289 18.8564 6.5292 18.8564 9.96582C18.8564 14.4727 21.3955 14.4727 21.3955 18.9795C21.3955 23.4851 18.8564 23.4851 18.8564 27.9919C18.8564 32.4987 21.3955 32.4987 21.3955 37.0056C21.3955 41.5124 18.8564 41.5124 18.8564 46.0192C18.8564 50.5261 21.3955 50.5261 21.3955 55.0342C21.3955 58.5127 19.8835 59.3062 19.1929 61.5596" stroke="#989898" stroke-width="2.4" stroke-miterlimit="10" stroke-linecap="round" stroke-linejoin="round"/>
<path d="M12.2505 61.5596C12.9411 59.3062 14.4531 58.5127 14.4531 55.0342C14.4531 50.5261 11.9141 50.5261 11.9141 46.0192C11.9141 41.5124 14.4531 41.5124 14.4531 37.0056C14.4531 32.4987 11.9141 32.4987 11.9141 27.9919C11.9141 23.4851 14.4531 23.4851 14.4531 18.9795C14.4531 14.4727 11.9141 14.4727 11.9141 9.96583C11.9141 6.48731 13.4261 5.69386 14.1167 3.44044" stroke="#989898" stroke-width="2.4" stroke-miterlimit="10" stroke-linecap="round" stroke-linejoin="round"/>
</g>
</g>
<defs>
<clipPath id="clip0_377_2635">
<rect width="65" height="65" fill="white"/>
</clipPath>
</defs>
</svg>
