<svg width="66" height="66" viewBox="0 0 66 66" fill="none" xmlns="http://www.w3.org/2000/svg">
<path d="M57.9562 7.11572H8.04375C5.25938 7.11572 3.09375 9.38447 3.09375 12.0657V33.4126C3.09375 36.0938 5.25938 38.3626 8.04375 38.3626H57.9562C60.6375 38.3626 62.9062 36.197 62.9062 33.4126V12.0657C62.9062 9.38447 60.7406 7.11572 57.9562 7.11572ZM8.04375 9.17822H57.9562C59.5031 9.17822 60.8438 10.4157 60.8438 12.0657V16.2938H5.15625V12.0657C5.15625 10.5188 6.39375 9.17822 8.04375 9.17822ZM54.45 30.9376H11.6531V26.4001C11.6531 26.4001 11.6531 26.297 11.7562 26.297H54.3469C54.3469 26.297 54.45 26.297 54.45 26.4001V30.9376ZM11.6531 33.0001H54.45V36.3001H11.6531V33.0001ZM57.9562 36.3001H56.4094V26.4001C56.4094 25.2657 55.4812 24.2345 54.2437 24.2345H11.6531C10.5188 24.2345 9.4875 25.1626 9.4875 26.4001V36.3001H8.04375C6.49688 36.3001 5.15625 35.0626 5.15625 33.4126V18.3563H60.8438V33.4126C60.8438 34.9595 59.6063 36.3001 57.9562 36.3001Z" fill="#989898"/>
<path d="M8.6626 13.8188H10.7251C11.3438 13.8188 11.7563 13.4063 11.7563 12.7876C11.7563 12.1688 11.3438 11.7563 10.7251 11.7563H8.6626C8.04385 11.7563 7.63135 12.1688 7.63135 12.7876C7.63135 13.4063 8.14697 13.8188 8.6626 13.8188Z" fill="#989898"/>
<path d="M15.0562 13.8188H17.1187C17.7374 13.8188 18.1499 13.4063 18.1499 12.7876C18.1499 12.1688 17.7374 11.7563 17.1187 11.7563H15.0562C14.4374 11.7563 14.0249 12.1688 14.0249 12.7876C14.0249 13.4063 14.5405 13.8188 15.0562 13.8188Z" fill="#989898"/>
<path d="M21.45 13.8188H23.5125C24.1312 13.8188 24.5437 13.4063 24.5437 12.7876C24.5437 12.1688 24.1312 11.7563 23.5125 11.7563H21.45C20.8312 11.7563 20.4187 12.1688 20.4187 12.7876C20.4187 13.4063 20.9343 13.8188 21.45 13.8188Z" fill="#989898"/>
<path d="M33 42.3843C32.3812 42.3843 31.9688 42.7968 31.9688 43.4155V57.853C31.9688 58.4718 32.3812 58.8843 33 58.8843C33.6187 58.8843 34.0312 58.4718 34.0312 57.853V43.4155C34.0312 42.7968 33.6187 42.3843 33 42.3843Z" fill="#989898"/>
<path d="M48.2626 53.728C47.6438 53.728 47.2313 54.1405 47.2313 54.7593V55.0687C47.2313 55.9968 46.5095 56.8218 45.4782 56.8218C44.447 56.8218 43.7251 56.0999 43.7251 55.0687V43.4155C43.7251 42.7968 43.3126 42.3843 42.6938 42.3843C42.0751 42.3843 41.6626 42.7968 41.6626 43.4155V55.0687C41.6626 57.1312 43.3126 58.8843 45.4782 58.8843C47.5407 58.8843 49.2938 57.2343 49.2938 55.0687V54.7593C49.2938 54.1405 48.8813 53.728 48.2626 53.728Z" fill="#989898"/>
<path d="M23.203 42.3843C22.5843 42.3843 22.1718 42.7968 22.1718 43.4155V55.0687C22.1718 55.9968 21.4499 56.8218 20.4187 56.8218C19.3874 56.8218 18.6655 56.0999 18.6655 55.0687V54.7593C18.6655 54.1405 18.253 53.728 17.6343 53.728C17.0155 53.728 16.603 54.1405 16.603 54.7593V55.0687C16.603 57.1312 18.253 58.8843 20.4187 58.8843C22.4812 58.8843 24.2343 57.2343 24.2343 55.0687V43.4155C24.2343 42.7968 23.8218 42.3843 23.203 42.3843Z" fill="#989898"/>
</svg>
