<svg width="20" height="20" viewBox="0 0 20 20" fill="none" xmlns="http://www.w3.org/2000/svg">
<path d="M16.1534 4.77974H8.89335C8.80001 4.77974 8.71334 4.73307 8.66667 4.6464L7.79334 3.43311C7.55335 3.00643 7.10002 2.73975 6.61336 2.73975H3.85335C2.83333 2.73975 2 3.57308 2 4.5931V15.4198C2 16.4331 2.82666 17.2598 3.84668 17.2598H16.1534C17.1733 17.2598 18 16.4331 18 15.4131V6.6331C18 5.61308 17.1733 4.77974 16.1534 4.77974ZM7.98669 9.46643C8.24666 9.19975 8.66667 9.19975 8.92668 9.46643L9.33333 9.87309V7.89311C9.33333 7.51974 9.63334 7.22644 10 7.22644C10.3733 7.22644 10.6667 7.51974 10.6667 7.89311V9.86642L11.0733 9.45976C11.3333 9.19975 11.7533 9.19975 12.0133 9.45976C12.28 9.71977 12.28 10.1398 12.02 10.3997C10.4155 11.9976 10.5089 11.9246 10.3733 12.0331C10.26 12.1064 10.1333 12.1464 10 12.1464C9.86666 12.1464 9.73336 12.1064 9.62667 12.0331C9.55835 11.9648 7.9191 10.3391 7.98669 10.4064C7.72669 10.1464 7.72669 9.72644 7.98669 9.46643ZM12.2667 14.8131H7.73336C7.36666 14.8131 7.06669 14.5197 7.06669 14.1464C7.06669 13.7797 7.36666 13.4797 7.73336 13.4797H12.2667C12.64 13.4797 12.9334 13.7797 12.9334 14.1464C12.9334 14.5197 12.64 14.8131 12.2667 14.8131Z" fill="#008D84"/>
</svg>
