<svg width="659" height="143" viewBox="0 0 659 143" fill="none" xmlns="http://www.w3.org/2000/svg">
<path fill-rule="evenodd" clip-rule="evenodd" d="M396.01 33.9933L366.056 102.316L358.075 40.8192H331.378L310.009 101.408L299.645 51.4464H272.948L294.621 141.066H321.308L338.991 91.2031L346.047 141.075H372.756L424.855 33.9966L396.01 33.9933Z" fill="#E32124"/>
<path fill-rule="evenodd" clip-rule="evenodd" d="M467.499 0H440.149L424.18 34.3901H450.251L467.499 0Z" fill="#E32124"/>
<path fill-rule="evenodd" clip-rule="evenodd" d="M569.818 89.4456V77.4808C569.818 61.612 553.883 57.4181 543.949 57.4181C543.949 57.4181 545.474 57.4451 543.949 57.4451C543.075 57.4451 487.196 57.3694 487.196 57.3694V142.137H512.009V73.2572L538.071 73.2504C546.629 73.2504 547.377 76.9817 547.377 79.7196C547.377 82.1181 547.377 89.7105 547.377 89.7105C547.377 89.7105 547.503 96.2299 539.113 96.2299C533.258 96.2299 520.212 96.2299 520.212 96.2299L544.479 142.039H570.622L552.539 110.485C563.192 109.14 569.818 103.695 569.818 89.4453V89.4456Z" fill="#3F4291"/>
<path fill-rule="evenodd" clip-rule="evenodd" d="M60.706 91.0335C49.5552 91.0335 60.706 91.0154 60.706 91.0154L27.4364 91.0638V71.557H78.5462V56.4917H21.3517C5.36347 56.4917 0 64.7064 0 64.7064V99.4615C0 99.4615 5.95908 105.89 22.4909 105.89C31.8627 105.89 54.3643 105.89 54.3643 105.89V126.149H0.443515V142.137H62.9043C75.1626 142.137 81.2295 135.015 81.2295 135.015V98.8925C81.2295 98.8925 76.0764 91.0335 60.7066 91.0335H60.706Z" fill="#3F4291"/>
<path fill-rule="evenodd" clip-rule="evenodd" d="M146.802 57.098V126.149H116.28L116.249 57.098H89.0063V130.338C89.0063 130.338 94.2798 142.137 113.119 142.137C132.954 142.127 149.892 142.118 149.892 142.118C166.778 142.118 173.095 132.718 173.095 132.718L173.105 132.596L173.111 57.098H146.803H146.802Z" fill="#3F4291"/>
<path fill-rule="evenodd" clip-rule="evenodd" d="M240.716 51.446V106.684L207.553 57.7787L180.765 57.8051V142.137H207.018V89.2989L242.84 142.04H266.98V51.446H240.716Z" fill="#3F4291"/>
<path fill-rule="evenodd" clip-rule="evenodd" d="M487.457 142.137L452.509 57.4431H426.652L387.793 142.137H415.266L438.627 82.3395L460.905 142.137H487.457Z" fill="#3F4291"/>
<path fill-rule="evenodd" clip-rule="evenodd" d="M626.546 58.0441V58.0599H577.334V142.138L615.225 142.124C635.085 142.124 659 138.63 659 112.241V87.1617C659 56.1769 626.545 58.0444 626.545 58.0444L626.546 58.0441ZM635.311 114.418C635.311 114.418 634.739 126.323 620.773 126.323C613.532 126.323 606.64 126.323 600.565 126.327V74.3213L619.061 74.3112C619.061 74.3112 635.311 72.8858 635.311 87.0156C635.311 99.4614 635.311 114.418 635.311 114.418Z" fill="#3F4291"/>
</svg>
