<svg width="57" height="57" viewBox="0 0 57 57" fill="none" xmlns="http://www.w3.org/2000/svg">
<g clip-path="url(#clip0_102_2273)">
<path d="M17.3136 45.6534C18.9346 46.7132 20.698 47.5326 22.5416 48.0937H17.946C17.4472 47.8265 16.9663 47.5415 16.4943 47.2387C16.7169 47.0072 16.904 46.7311 17.0286 46.4282C17.1266 46.1967 17.2246 45.9384 17.3136 45.6534ZM39.9622 46.4282C39.8643 46.1967 39.7663 45.9384 39.6772 45.6623C38.0563 46.7222 36.2929 47.5335 34.4582 48.0937H39.0538C39.5526 47.8265 40.0335 47.5415 40.5055 47.2387C40.2829 47.0072 40.0958 46.7311 39.9622 46.4282ZM18.7128 8.01559C18.7128 12.54 14.7674 14.5982 13.8678 14.9981C12.8712 11.7126 10.332 9.91263 8.09746 9.05763C8.05204 8.7281 8.02532 8.38075 8.02532 8.01559C8.02532 3.02008 12.8347 1.0331 13.0395 0.952939C13.2533 0.872783 13.4848 0.872783 13.6986 0.952939C13.9026 1.0331 18.7128 3.02008 18.7128 8.01559ZM10.1806 22.9879C7.96298 21.3928 5.44251 21.1701 4.20454 21.1701C3.82157 21.1701 3.50985 21.1888 3.2961 21.2066C2.69849 20.4933 2.20063 19.6115 1.90673 18.5161C0.615319 13.6889 4.74782 10.5272 4.92594 10.4025C5.10407 10.26 5.33652 10.1985 5.56808 10.2252C5.78183 10.2511 10.9377 10.919 12.2291 15.7551C13.1464 19.1484 11.3741 21.7134 10.1806 22.9879ZM11.2405 33.6389C10.4656 33.4349 9.63646 33.3272 8.78146 33.3272C6.5736 33.3272 4.89032 34.0308 4.72021 34.102C4.53318 34.1822 4.36396 34.2801 4.20365 34.4048C3.33173 33.8615 2.49365 33.0787 1.84349 31.9556C-0.650259 27.6272 2.52126 23.5134 2.65396 23.3343C2.79646 23.1562 3.00219 23.0404 3.23287 23.0048C3.26849 23.0048 3.63365 22.9505 4.20365 22.9505C5.64646 22.9505 9.19115 23.3067 11.106 26.6207C12.6833 29.3648 11.9975 32.0179 11.2405 33.6389ZM11.5727 46.8299C9.55096 46.8299 7.76348 46.1085 6.40082 44.7467C2.86504 41.2119 4.86449 36.4123 4.95177 36.2092C5.04173 35.999 5.20916 35.8316 5.41935 35.7416C5.47902 35.7158 6.92094 35.1084 8.78502 35.1084C10.8067 35.1084 12.5942 35.828 13.9569 37.1907C17.4927 40.7256 15.4923 45.5252 15.405 45.7282C15.3151 45.9384 15.1476 46.1058 14.9375 46.1958C14.8778 46.2216 13.4376 46.8299 11.5727 46.8299ZM43.3012 0.952939C43.5149 0.872783 43.7465 0.872783 43.9603 0.952939C44.1642 1.0331 48.9745 3.01919 48.9745 8.01559C48.9745 8.38075 48.9478 8.7281 48.9032 9.05763C46.6678 9.91263 44.1295 11.7117 43.1329 14.9981C42.2324 14.5982 38.2879 12.54 38.2879 8.01559C38.287 3.02008 43.0972 1.0331 43.3012 0.952939ZM44.7716 15.7542C46.063 10.9181 51.2189 10.2502 51.4326 10.2243C51.6642 10.1976 51.8966 10.2591 52.0747 10.4016C52.252 10.5272 56.3854 13.688 55.094 18.5152C54.8001 19.6098 54.3013 20.4924 53.7037 21.2057C53.4908 21.187 53.1782 21.1692 52.7953 21.1692C51.5573 21.1692 49.0368 21.3919 46.8192 22.987C45.6257 21.7134 43.8534 19.1484 44.7716 15.7542ZM45.8929 26.6216C47.8078 23.3076 51.3524 22.9514 52.7953 22.9514C53.3653 22.9514 53.7304 23.0057 53.766 23.0057C53.9976 23.0413 54.2024 23.1571 54.3449 23.3352C54.4776 23.5134 57.6492 27.6272 55.1554 31.9565C54.5053 33.0796 53.6672 33.8624 52.7953 34.4057C52.6349 34.281 52.4657 34.183 52.2787 34.1029C52.1095 34.0316 50.4262 33.328 48.2174 33.328C47.3624 33.328 46.5333 33.4349 45.7584 33.6398C45.0023 32.0179 44.3165 29.3648 45.8929 26.6216ZM42.0623 46.1958C41.8521 46.105 41.6838 45.9384 41.5948 45.7282C41.5075 45.5252 39.5071 40.7256 43.0429 37.1907C44.4047 35.828 46.1931 35.1084 48.2148 35.1084C50.0797 35.1084 51.5208 35.7158 51.5804 35.7416C51.7906 35.8325 51.959 35.999 52.048 36.2092C52.1353 36.4123 54.1348 41.2119 50.599 44.7467C49.2372 46.1085 47.4488 46.8299 45.4271 46.8299C43.5621 46.8299 42.122 46.2216 42.0623 46.1958ZM40.8894 21.3251C40.7451 21.0071 40.428 20.8023 40.078 20.8023H32.3857L29.3139 13.8875C29.1705 13.566 28.8517 13.3593 28.4999 13.3593C28.1481 13.3593 27.8293 13.566 27.6859 13.8884L24.6141 20.8032H16.9218C16.5718 20.8032 16.2547 21.0071 16.1104 21.326C15.9661 21.6448 16.0213 22.0171 16.2511 22.2798L21.7249 28.5347L19.3692 37.172C19.2739 37.5229 19.4013 37.8961 19.6907 38.116C19.9811 38.336 20.3756 38.3574 20.6864 38.1704L28.4999 33.4848L36.3125 38.1704C36.4541 38.255 36.6126 38.2968 36.7711 38.2968C36.9608 38.2968 37.1505 38.2363 37.3091 38.116C37.5985 37.897 37.7259 37.5229 37.6306 37.172L35.2749 28.5347L40.7487 22.2798C40.9784 22.0171 41.0337 21.6439 40.8894 21.3251ZM11.9289 55.2909C11.7357 55.7406 11.9788 56.1093 12.4686 56.1093H44.5312C45.021 56.1093 45.2641 55.7406 45.0709 55.2909L43.1008 50.6935C42.9075 50.2437 42.3491 49.875 41.8593 49.875H15.1405C14.6507 49.875 14.0923 50.2437 13.899 50.6935L11.9289 55.2909ZM28.4999 35.5626L27.6093 36.0979V48.0937H29.3905V36.097L28.4999 35.5626Z" fill="#F39A2E"/>
</g>
<defs>
<clipPath id="clip0_102_2273">
<rect width="57" height="57" fill="white"/>
</clipPath>
</defs>
</svg>
