<svg width="56" height="56" viewBox="0 0 56 56" fill="none" xmlns="http://www.w3.org/2000/svg">
<path d="M45.2146 1.88046C43.1201 2.44168 41.6858 4.65346 42.4529 6.77327L49.0854 25.0987C49.5508 24.7152 50.1386 24.4954 50.7534 24.4954C51.7491 24.4755 52.8199 24.4789 53.78 24.5381L50.0561 4.72754C49.6932 2.79719 47.8627 1.63512 46.0076 1.75047C45.7427 1.76701 45.4764 1.81035 45.2146 1.88046ZM46.375 5.24881C46.8582 5.24881 47.25 5.64046 47.25 6.12372C47.25 6.60699 46.8582 6.99874 46.375 6.99874C45.8918 6.99874 45.5 6.60696 45.5 6.12372C45.5 5.64049 45.8918 5.24881 46.375 5.24881ZM25.9082 11.4456C23.7311 12.3937 22.4059 14.4384 21.7314 16.3315L21.0051 18.3721H31.5598C31.8551 17.5717 32.2643 16.8801 33.4875 16.1692L42.0393 10.7722L40.8071 7.36792C40.5773 6.73253 40.4837 6.09433 40.4978 5.47266L25.9082 11.4456ZM20.1301 20.122C18.687 20.122 17.6671 21.3441 17.5137 22.648L17.5335 22.5385L15.9442 28.8737H4.37605C2.93693 28.8737 1.74764 30.0579 1.74764 31.497V37.6271C1.74764 39.0662 2.93693 40.2486 4.37605 40.2486H34.1278C35.567 40.2486 36.7885 39.0685 36.7562 37.6065V31.497C36.7553 31.3862 36.733 31.2767 36.6913 31.1738L33.1914 22.4222C33.0029 21.9512 32.7884 21.4378 32.4018 20.9746C32.0152 20.5115 31.3734 20.1219 30.633 20.1219L20.1301 20.122ZM21.8699 23.6238H21.8798H24.5031V30.6254H20.4784C19.9005 30.6263 19.4802 30.0773 19.6325 29.5198L21.0339 24.2749C21.1344 23.8947 21.4767 23.6284 21.8699 23.6238ZM26.2534 23.6238H29.063C29.415 23.6236 29.7328 23.8344 29.8696 24.1587L33.1833 32.0337C33.23 32.1415 33.2545 32.2579 33.2551 32.3754V35.8772C33.2534 36.3578 32.8641 36.7469 32.3835 36.7488H27.1318C26.8391 36.7497 26.5651 36.6042 26.4021 36.3608L26.2532 36.137L26.2534 23.6238ZM50.7534 26.2454C50.4756 26.2454 50.2143 26.3773 50.0493 26.6008L42.176 37.0974C41.7425 37.6734 42.1529 38.4973 42.8733 38.4988H48.125C51.5031 38.4988 54.2466 35.7536 54.2466 32.3754V27.1237C54.2483 26.6405 53.8582 26.2473 53.375 26.2453L50.7534 26.2454ZM6.11303 32.3618C6.60429 32.3552 7.00402 32.7558 6.9983 33.247V35.8772C7.02476 37.0704 5.2215 37.0704 5.24829 35.8772V33.247C5.24168 32.7638 5.6298 32.3675 6.11303 32.3618ZM9.61474 32.3618C10.106 32.3552 10.5057 32.7558 10.5 33.247V35.8772C10.5265 37.0694 8.72427 37.0694 8.75 35.8772V33.247C8.74339 32.7638 9.13151 32.3675 9.61474 32.3618ZM13.1096 32.3618C13.6029 32.3519 14.0058 32.7537 14 33.247V35.8772C13.9735 37.018 12.2756 37.018 12.25 35.8772V33.247C12.2433 32.7658 12.6284 32.3703 13.1096 32.3618ZM7.8767 41.9988C4.49861 41.9988 1.74658 44.7457 1.74658 48.1238C1.74658 51.5019 4.49861 54.2453 7.8767 54.2453H35C38.3781 54.2453 41.1216 51.5019 41.1216 48.1238C41.1216 44.7457 38.3781 41.9988 35 41.9988H7.8767ZM9.62843 45.5004C11.0678 45.5004 12.25 46.6844 12.25 48.1238C12.25 49.5631 11.0678 50.7522 9.62843 50.7522C8.18902 50.7522 6.9983 49.5631 6.9983 48.1238C6.9983 46.6844 8.18908 45.5004 9.62843 45.5004ZM17.5017 45.5004C18.9411 45.5004 20.1233 46.6844 20.1233 48.1238C20.1233 49.5631 18.9411 50.7522 17.5017 50.7522C16.0623 50.7522 14.8716 49.5631 14.8716 48.1238C14.8716 46.6844 16.0623 45.5004 17.5017 45.5004ZM25.375 45.5004C26.8144 45.5004 27.9965 46.6844 27.9966 48.1238C27.9966 49.5631 26.8144 50.7522 25.375 50.7522C23.9356 50.7522 22.7534 49.5631 22.7534 48.1238C22.7535 46.6844 23.9356 45.5004 25.375 45.5004ZM33.2483 45.5004C34.6877 45.5004 35.8784 46.6844 35.8784 48.1238C35.8784 49.5631 34.6877 50.7522 33.2483 50.7522C31.8089 50.7522 30.6267 49.5631 30.6267 48.1238C30.6267 46.6844 31.8089 45.5004 33.2483 45.5004Z" fill="#F39A2E"/>
</svg>
