<svg width="52" height="52" viewBox="0 0 52 52" fill="none" xmlns="http://www.w3.org/2000/svg">
<g clip-path="url(#clip0_102_2287)">
<path d="M52 31.5913V20.4088H46.5333C46.0608 18.6678 45.3711 17.0023 44.4732 15.4339L48.3385 11.5688L40.4312 3.66163L36.5688 7.52416C34.9999 6.62441 33.3335 5.93328 31.5913 5.45949V0H20.4088V5.45949C18.6666 5.93328 17.0002 6.62441 15.4313 7.52416L11.5689 3.66163L3.66163 11.5688L7.5269 15.4339C6.62909 17.0023 5.93937 18.6679 5.4668 20.4088H0V31.5912H5.47239C5.94608 33.3298 6.6362 34.9926 7.53411 36.5585L3.66153 40.4311L11.5688 48.3383L15.4441 44.463C17.0093 45.359 18.6714 46.0478 20.4087 46.5203V52H31.5911V46.5204C33.3284 46.0479 34.9906 45.3591 36.5557 44.4631L40.431 48.3384L48.3383 40.4312L44.4657 36.5586C45.3636 34.9928 46.0538 33.3299 46.5274 31.5913H52ZM26 40.9098C17.7787 40.9098 11.0902 34.2213 11.0902 26C11.0902 17.7787 17.7787 11.0902 26 11.0902C34.2213 11.0902 40.9098 17.7787 40.9098 26C40.9098 34.2213 34.2213 40.9098 26 40.9098Z" fill="#F39A2E"/>
<path d="M25.9999 14.2077C19.4976 14.2077 14.2075 19.4978 14.2075 26C14.2075 32.5023 19.4976 37.7923 25.9999 37.7923C32.5023 37.7923 37.7924 32.5024 37.7924 26C37.7924 19.4977 32.5023 14.2077 25.9999 14.2077ZM30.6081 27.8667L27.5211 25.7431V29.0634L29.6089 30.4925L27.8878 33.0068L26.0055 31.7183L24.1477 33.0129L22.4057 30.5132L24.4744 29.0716V25.756L21.3965 27.8902L19.6603 25.3865L24.4744 22.0484V19.0182H27.5212V22.0448L32.3351 25.3564L30.6081 27.8667Z" fill="#F39A2E"/>
</g>
<defs>
<clipPath id="clip0_102_2287">
<rect width="52" height="52" fill="white"/>
</clipPath>
</defs>
</svg>
