<svg width="52" height="52" viewBox="0 0 52 52" fill="none" xmlns="http://www.w3.org/2000/svg">
<g clip-path="url(#clip0_102_2295)">
<path d="M20.5219 36.2974H20.5208C19.5458 36.2974 18.6287 36.6773 17.9391 37.3659C17.2495 38.0555 16.8697 38.9726 16.8687 39.9476C16.8687 41.9616 18.5058 43.5998 20.5198 43.6008H20.5208C21.4958 43.6008 22.4119 43.2209 23.1015 42.5323C23.1889 42.445 23.2712 42.3546 23.3473 42.2602C22.9807 40.6047 22.872 38.9279 23.0112 37.2816C22.3591 36.6722 21.4826 36.2974 20.5219 36.2974Z" fill="#F39A2E"/>
<path d="M0.00292969 29.4267V34.2712C3.5241 34.2692 6.3902 31.4153 6.41051 27.8982H1.53145C0.687461 27.8982 0.00292969 28.5827 0.00292969 29.4267Z" fill="#F39A2E"/>
<path d="M0.00195312 45.6239V50.4715C0.00195312 51.3155 0.686484 52 1.53148 52C1.53148 52 3.50383 52 6.41055 51.999C6.39125 48.4809 3.52414 45.6249 0.00195312 45.6239Z" fill="#F39A2E"/>
<path d="M24.3861 45.4208C23.2628 46.218 21.9242 46.6476 20.5206 46.6476H20.5176C16.8248 46.6456 13.8205 43.6404 13.8216 39.9466C13.8226 38.157 14.5203 36.4762 15.7858 35.2107C17.0502 33.9473 18.7321 33.2505 20.5196 33.2505H20.5227C21.6205 33.2516 22.6788 33.5136 23.6234 34.0092C24.1789 32.1222 25.0767 30.3255 26.2975 28.7087L26.9089 27.8992L9.45742 27.8982C9.43711 33.0951 5.20398 37.3161 0.00296875 37.3181L0.00195312 42.577C5.20398 42.578 9.43813 46.801 9.45742 51.999C17.0411 51.9969 27.628 51.9959 29.7181 51.9969C27.3913 50.3151 25.5561 48.0512 24.3861 45.4208Z" fill="#F39A2E"/>
<path d="M49.2956 30.5672L47.2634 27.8606H30.7544L28.7292 30.5439C26.2745 33.7969 25.4223 37.9346 26.3902 41.8965C27.3459 45.8036 29.9652 49.0333 33.5758 50.7548C35.3125 51.5815 37.1335 52 38.9911 52H39.0013C41.1259 51.9979 43.1856 51.4556 45.1234 50.3872C46.8063 49.4589 48.2485 48.1873 49.3698 46.675C50.491 45.1628 51.2913 43.4088 51.6976 41.5197C52.5212 37.6898 51.6448 33.6984 49.2956 30.5672ZM43.7635 41.8386C43.4761 43.4474 42.1913 44.7007 40.5237 45.1313V45.3984C40.5237 46.2393 39.8412 46.9218 39.0002 46.9218C38.8987 46.9218 38.3594 46.9117 37.9237 46.475C37.6474 46.1997 37.4768 45.8189 37.4768 45.3984V45.0531C36.3545 44.7413 35.344 44.136 34.5762 43.289C34.0105 42.6654 34.0582 41.7015 34.6818 41.1368C35.3054 40.5722 36.2682 40.6189 36.8339 41.2425C37.3549 41.8173 38.1512 42.1799 39.0002 42.2378C39.0805 42.2439 39.1607 42.2469 39.242 42.2469C40.1652 42.2469 40.6963 41.6833 40.7644 41.3024C40.8466 40.8413 40.2149 40.433 39.5954 40.2045C39.3933 40.1304 39.1942 40.0552 39.0002 39.98C37.6769 39.5058 36.9517 39.1543 36.5495 38.9695C36.4764 38.936 36.4053 38.8984 36.3383 38.8537C35.1835 38.1011 34.5894 36.7818 34.7864 35.4108C34.9916 33.9808 36.0204 32.8138 37.4768 32.3466V31.9922C37.4768 31.1512 38.1593 30.4687 39.0002 30.4687C39.8412 30.4687 40.5237 31.1512 40.5237 31.9922V32.2918C41.9303 32.6635 42.8789 33.4455 42.9409 33.4973C43.3816 34.1016 43.341 34.9324 42.8535 35.4778C42.3894 35.9968 41.6195 36.145 40.9838 35.8322C40.9827 35.8312 40.9817 35.8302 40.9807 35.8302C40.8781 35.751 40.0169 35.1142 39.0002 35.1457C38.7392 35.1325 38.5473 35.2025 38.4305 35.2381C37.9196 35.3925 37.8211 35.7134 37.8018 35.8444C37.7876 35.9429 37.7896 36.1156 37.9359 36.2507C38.1329 36.336 38.5148 36.5015 39.0002 36.7006C39.4786 36.8966 40.0545 37.1261 40.6506 37.3455C43.3583 38.3449 44.0347 40.3213 43.7635 41.8386Z" fill="#F39A2E"/>
<path d="M32.3681 24.8138H45.6545C45.7368 23.0679 46.917 21.0691 47.4776 20.3105C48.022 19.5802 47.7884 18.4356 46.6762 18.0416H31.3495C30.2373 18.4356 30.0038 19.5802 30.5481 20.3105C31.0732 21.0163 32.2798 23.0506 32.3681 24.8138Z" fill="#F39A2E"/>
<path d="M22.4647 9.70836C22.4647 13.585 20.726 17.0635 17.9868 19.4055C22.9593 18.9739 26.8715 14.7895 26.8715 9.70836C26.8715 4.62718 22.9593 0.44281 17.9868 0.0111694C20.726 2.3532 22.4647 5.83172 22.4647 9.70836Z" fill="#F39A2E"/>
<path d="M9.70836 19.4177C15.0627 19.4177 19.4177 15.0617 19.4177 9.70836C19.4177 4.355 15.0627 0 9.70836 0C4.355 0 0 4.355 0 9.70836C0 15.0617 4.355 19.4177 9.70836 19.4177ZM8.18492 7.87617C8.18492 7.03422 8.86742 6.35273 9.70836 6.35273C10.5513 6.35273 11.2318 7.03422 11.2318 7.87617V11.5405C11.2318 12.3825 10.5513 13.064 9.70836 13.064C8.86742 13.064 8.18492 12.3825 8.18492 11.5405V7.87617Z" fill="#F39A2E"/>
</g>
<defs>
<clipPath id="clip0_102_2295">
<rect width="52" height="52" fill="white"/>
</clipPath>
</defs>
</svg>
