<svg width="66" height="66" viewBox="0 0 66 66" fill="none" xmlns="http://www.w3.org/2000/svg">
<path d="M47.4375 26.6372V37.125C47.4375 37.125 41.25 41.25 33 41.25C24.75 41.25 18.5625 37.125 18.5625 37.125V26.6372L32.6287 32.0471C32.868 32.1379 33.1299 32.1379 33.3692 32.0471L47.4375 26.6372Z" fill="#F39A2E"/>
<path d="M58.2986 19.1441L55.6875 20.1485V29.0647C56.8858 29.4917 57.75 30.624 57.75 31.9687V36.5062C57.75 36.8486 57.4736 37.125 57.1312 37.125H52.1812C51.8388 37.125 51.5625 36.8486 51.5625 36.5062V31.9687C51.5625 30.624 52.4267 29.4896 53.625 29.0647V20.9426L33.2248 28.7883C33.0701 28.7883 32.9319 28.7883 32.7772 28.7883L7.70134 19.1441C7.16921 18.9399 7.16921 18.185 7.70134 17.9788L32.7772 8.33453H33.2248L58.3007 17.9788C58.8328 18.185 58.8328 18.9399 58.2986 19.1441Z" fill="#F39A2E"/>
<path d="M51.942 53.625H16.5C15.3615 53.625 14.4375 52.701 14.4375 51.5625C14.4375 50.424 15.3615 49.5 16.5 49.5H51.942C51.711 50.1476 51.5625 50.8344 51.5625 51.5625C51.5625 52.2906 51.711 52.9774 51.942 53.625Z" fill="#F39A2E"/>
<path d="M11.8594 51.5625C11.8594 53.8374 13.7094 55.6875 15.9844 55.6875H54.6562C55.2255 55.6875 55.6875 56.1495 55.6875 56.7188V57.75C55.6875 58.3193 55.2255 58.7812 54.6562 58.7812H15.9844C12.0038 58.7812 8.76562 55.5431 8.76562 51.5625C8.76562 47.5819 12.0038 44.3438 15.9844 44.3438H54.6562C55.2255 44.3438 55.6875 44.8058 55.6875 45.375V46.4062C55.6875 46.9755 55.2255 47.4375 54.6562 47.4375H15.9844C13.7094 47.4375 11.8594 49.2876 11.8594 51.5625Z" fill="#F39A2E"/>
</svg>
