<svg width="54" height="54" viewBox="0 0 54 54" fill="none" xmlns="http://www.w3.org/2000/svg">
<g clip-path="url(#clip0_155_337)">
<path d="M35.1225 40.9595C34.8421 40.9595 34.5583 40.9421 34.2793 40.9079L32.5498 40.696L31.1581 41.7443C28.7732 43.5914 25.2269 43.5913 22.8419 41.7443L21.4503 40.696L19.7207 40.9079C18.7774 41.0257 17.7867 40.9395 16.8926 40.6695V54L27.0012 50.2467L37.1099 54V40.6688C36.4758 40.8588 35.8077 40.9595 35.1225 40.9595Z" fill="#F39A2E"/>
<path d="M44.4159 15.3172L44.7832 12.3195C44.9854 10.6702 44.0585 9.06475 42.5291 8.41517L39.7492 7.23458L38.5687 4.45462C37.928 2.92308 36.3094 1.99059 34.6645 2.20061L31.6667 2.56802L29.2544 0.750928C27.9614 -0.250443 26.039 -0.250338 24.746 0.750928L22.3337 2.56802L19.336 2.20061C17.691 1.99059 16.0726 2.92297 15.4317 4.45473L14.2511 7.23458L11.4711 8.41517C9.94181 9.06475 9.01491 10.6702 9.21713 12.3194L9.58443 15.3172L7.76734 17.7296C6.76766 19.0568 6.76766 20.9106 7.76734 22.2378L9.58443 24.6502L9.21713 27.6479C9.01491 29.2971 9.94192 30.9025 11.4712 31.5522L14.2511 32.7328L15.4317 35.5127C16.0724 37.0443 17.691 37.9768 19.3359 37.7667L22.3337 37.3993L24.746 39.2164C26.039 40.2178 27.9614 40.2178 29.2544 39.2164L31.6667 37.3993L34.6644 37.7667C34.8163 37.7854 34.9705 37.7948 35.1229 37.7948C36.6274 37.7949 37.9799 36.899 38.5687 35.5126L39.7493 32.7328L42.5293 31.5521C44.0585 30.9025 44.9855 29.2971 44.7833 27.6479L44.416 24.6501L46.2331 22.2376C47.2327 20.9104 47.2327 19.0566 46.2331 17.7294L44.4159 15.3172ZM27.0013 33.4155C19.595 33.4155 13.5696 27.39 13.5696 19.9837C14.2448 2.18911 39.7605 2.19397 40.4331 19.9839C40.4331 27.3901 34.4076 33.4155 27.0013 33.4155Z" fill="#F39A2E"/>
<path d="M27.0011 9.71655C21.3397 9.71655 16.7339 14.3225 16.7339 19.9837C17.25 33.586 36.7542 33.5823 37.2683 19.9836C37.2683 14.3224 32.6625 9.71655 27.0011 9.71655ZM27.0011 23.2058C28.0511 23.2058 29.0384 22.6914 29.6423 21.8298L32.2337 23.6461C28.6626 28.7195 20.6334 26.1944 20.6145 19.9836C20.6336 13.7728 28.6635 11.2481 32.2337 16.3213L29.6423 18.1377C27.84 15.5763 23.7891 16.8496 23.779 19.9837C23.779 21.7603 25.2245 23.2058 27.0011 23.2058Z" fill="#F39A2E"/>
</g>
<defs>
<clipPath id="clip0_155_337">
<rect width="54" height="54" fill="white"/>
</clipPath>
</defs>
</svg>
