<svg width="40" height="40" viewBox="0 0 40 40" fill="none" xmlns="http://www.w3.org/2000/svg">
<g clip-path="url(#clip0_155_383)">
<path d="M29.9335 40V26.0937L27.6587 25.0264C27.4257 25.2796 27.1801 25.5207 26.9235 25.7494V33.6456H13.076V25.7494C12.8193 25.5207 12.5738 25.2795 12.3407 25.0264L10.0659 26.0936V40H29.9335Z" fill="#F39A2E"/>
<path d="M9.4165 16.2743C9.4165 17.2537 9.81792 17.8865 10.4391 17.8865H11.8757L11.996 18.9233C12.4672 22.9813 15.9082 26.0414 20 26.0414C21.6929 26.0414 23.2741 25.5172 24.58 24.6157V24.57H24.646C26.4614 23.2899 27.731 21.2741 28.004 18.9234L28.1243 17.8866H29.5609C30.1821 17.8866 30.5835 17.2538 30.5835 16.2744V14.8954H9.4165V16.2743Z" fill="#F39A2E"/>
<path d="M24.5798 27.3253C23.1932 28.0053 21.637 28.3852 19.9999 28.3852C18.3627 28.3852 16.8065 28.0053 15.4199 27.3253V31.3019H24.5798V27.3253Z" fill="#F39A2E"/>
<path d="M31.5799 12.5515V9.76497H29.8904C29.3679 6.25521 27.0144 3.33663 23.8364 2.01106V5.22332H21.4926V0H18.5067V5.22332H16.1629V2.01106C12.9848 3.33663 10.6314 6.25521 10.1089 9.76497H8.41943V12.5515H31.5799Z" fill="#F39A2E"/>
<path d="M34.0637 28.0313L32.2773 27.1932V40H38.0776V34.3481C38.0776 31.6547 36.502 29.1752 34.0637 28.0313Z" fill="#F39A2E"/>
<path d="M7.72216 27.1932L5.93579 28.0313C3.49746 29.1752 1.92188 31.6547 1.92188 34.3482V40.0001H7.72216V27.1932Z" fill="#F39A2E"/>
</g>
<defs>
<clipPath id="clip0_155_383">
<rect width="40" height="40" fill="white"/>
</clipPath>
</defs>
</svg>
