<svg width="45" height="45" viewBox="0 0 45 45" fill="none" xmlns="http://www.w3.org/2000/svg">
<path d="M39.3091 33.0469C37.4551 33.0469 35.287 31.4015 34.6073 30.7668L33.7047 29.9261L32.8048 30.7668C32.1251 31.4015 29.957 33.0469 28.103 33.0469C26.2491 33.0469 24.081 31.4015 23.4012 30.7668L22.4987 29.9261L21.5988 30.7668C20.919 31.4015 18.7509 33.0469 16.897 33.0469C15.043 33.0469 12.8749 31.4015 12.1952 30.7668L11.2926 29.9261L10.3927 30.7668C9.71297 31.4015 7.54488 33.0469 5.69092 33.0469C4.57726 33.0469 3.02423 32.4237 1.59126 31.3385L0 33.4396C1.35053 34.4631 3.51 35.6836 5.69092 35.6836C7.95173 35.6836 10.1185 34.3253 11.2939 33.4369C12.4694 34.3253 14.6362 35.6836 16.897 35.6836C19.1578 35.6836 21.3246 34.3253 22.5 33.4369C23.6754 34.3253 25.8422 35.6836 28.103 35.6836C30.3638 35.6836 32.5306 34.3253 33.7061 33.4369C34.8815 34.3253 37.0483 35.6836 39.3091 35.6836C41.4862 35.6836 43.6495 34.4657 45 33.4434L43.4087 31.3397C42.5667 31.9783 40.8308 33.0469 39.3091 33.0469Z" fill="#F39A2E"/>
<path d="M39.3091 38.3203C37.4551 38.3203 35.287 36.6749 34.6073 36.0403L33.7047 35.1996L32.8048 36.0403C32.1251 36.6749 29.957 38.3203 28.103 38.3203C26.2491 38.3203 24.081 36.6749 23.4012 36.0403L22.4987 35.1996L21.5988 36.0403C20.919 36.6749 18.7509 38.3203 16.897 38.3203C15.043 38.3203 12.8749 36.6749 12.1952 36.0403L11.2926 35.1996L10.3927 36.0403C9.71297 36.6749 7.54488 38.3203 5.69092 38.3203C4.57726 38.3203 3.02423 37.6972 1.59126 36.6119L0 38.713C1.35053 39.7365 3.51 40.957 5.69092 40.957C7.95173 40.957 10.1185 39.5988 11.2939 38.7104C12.4694 39.5988 14.6362 40.957 16.897 40.957C19.1578 40.957 21.3246 39.5988 22.5 38.7104C23.6754 39.5988 25.8422 40.957 28.103 40.957C30.3638 40.957 32.5306 39.5988 33.7061 38.7104C34.8815 39.5988 37.0483 40.957 39.3091 40.957C41.4862 40.957 43.6495 39.7391 45 38.7169L43.4087 36.6131C42.5667 37.2517 40.8308 38.3203 39.3091 38.3203Z" fill="#F39A2E"/>
<path d="M0 6.67969H5.36133V11.9531H0V19.8633H4.04297C4.77035 19.8633 5.36133 20.4543 5.36133 21.1816V30.354C5.49492 30.3884 5.61208 30.4102 5.69092 30.4102C6.3668 30.4102 7.83193 29.5514 8.59289 28.8395L11.2901 26.3199L13.2715 28.1653V21.1816C13.2715 20.4543 13.8625 19.8633 14.5898 19.8633H30.4102C31.1375 19.8633 31.7285 20.4543 31.7285 21.1816V28.1635L33.7022 26.3198L36.4046 28.8368C37.1681 29.5514 38.6331 30.4101 39.3091 30.4101C39.3945 30.4101 39.5141 30.3841 39.6387 30.3534V21.1816C39.6387 20.4543 40.2296 19.8633 40.957 19.8633H45V11.9531H39.6387V6.67969H45V4.04297H0V6.67969ZM7.99805 11.9531V6.67969H13.2715V11.9531H7.99805ZM21.1816 11.9531H15.9082V6.67969H21.1816V11.9531ZM23.8184 6.67969H29.0918V11.9531H23.8184V6.67969ZM37.002 11.9531H31.7285V6.67969H37.002V11.9531Z" fill="#F39A2E"/>
</svg>
