<svg width="40" height="40" viewBox="0 0 40 40" fill="none" xmlns="http://www.w3.org/2000/svg">
<g clip-path="url(#clip0_166_7)">
<path d="M5 20C5 15.8578 6.67891 12.1078 9.39297 9.39377H9.39375L11.8711 11.8711L12.4852 2.76721L3.38125 3.38127L5.85781 5.85784C2.23828 9.47737 0 14.4774 0 20C0 31.0453 8.95469 40 20 40V35C11.7156 35 5 28.2844 5 20Z" fill="#F39A2E"/>
<path d="M21.1719 16.5899V10.5875H19.1687L12.957 22.1649L13.6969 23.4102H18.8281V29.4125H20.8313L27.043 17.8352L26.3031 16.5899H21.1719Z" fill="#F39A2E"/>
<path d="M40 20C40 8.95469 31.0453 0 20 0V5C28.2844 5 35 11.7156 35 20C35 24.1422 33.3211 27.8922 30.6063 30.6063L28.1297 28.1297L27.5156 37.2336L36.6203 36.6203L34.1422 34.1422C37.7617 30.5227 40 25.5227 40 20Z" fill="#F39A2E"/>
</g>
<defs>
<clipPath id="clip0_166_7">
<rect width="40" height="40" fill="white"/>
</clipPath>
</defs>
</svg>
