<svg width="40" height="40" viewBox="0 0 40 40" fill="none" xmlns="http://www.w3.org/2000/svg">
<g clip-path="url(#clip0_166_12)">
<path d="M37.6471 28.2354V31.6769C37.0636 31.8466 36.6003 32.0643 36.1656 32.2689C35.3989 32.6297 34.7368 32.9412 33.333 32.9412C31.9293 32.9412 31.2671 32.6296 30.5005 32.2689C29.6077 31.8488 28.5958 31.3726 26.6661 31.3726C26.1635 31.3726 25.7236 31.4052 25.3314 31.4604L25.0253 32.6092C24.4098 34.9189 22.3904 36.4706 20 36.4706C17.6096 36.4706 15.5902 34.9189 14.9747 32.6092L14.6686 31.4604C14.2762 31.4052 13.8361 31.3726 13.3331 31.3726C11.4034 31.3726 10.3916 31.8488 9.49882 32.2689C8.73224 32.6297 8.0702 32.9412 6.66659 32.9412C5.26298 32.9412 4.60086 32.6296 3.83427 32.2689C3.39961 32.0645 2.93639 31.8466 2.35302 31.677V28.2354H0V40.0001H40V28.2354H37.6471Z" fill="#F39A2E"/>
<path d="M13.3672 26.5769L12.6786 23.9931C12.26 22.4225 11.6021 20.8179 10.723 19.2238C9.8613 17.6609 9.40774 15.8871 9.41174 14.0939C9.4246 8.26871 14.1749 3.52941 20.0011 3.52941C20.0342 3.52941 20.0677 3.52957 20.1008 3.52988C22.908 3.55624 25.5429 4.66918 27.5201 6.66392C29.4986 8.65992 30.5882 11.3071 30.5882 14.1176C30.5882 15.9452 30.1141 17.7478 29.2172 19.3307C28.3988 20.7748 27.7408 22.4193 27.2613 24.2185L26.6328 26.5769C31.0826 24.1984 34.1176 19.506 34.1176 14.1176C34.1176 6.33318 27.7844 0 20 0C12.2155 0 5.88232 6.33318 5.88232 14.1176C5.88232 19.5061 8.91723 24.1984 13.3672 26.5769Z" fill="#F39A2E"/>
<path d="M20.0787 5.88269C15.5286 5.84002 11.7747 9.54873 11.7647 14.0991C11.7615 15.5455 12.1314 16.9051 12.7834 18.0875C13.7089 19.7657 14.4586 21.5352 14.9521 23.3871L17.2482 32.0031C17.9995 34.8223 22.0003 34.8223 22.7516 32.0031L24.9876 23.6125C25.4927 21.7171 26.2029 19.8772 27.1699 18.1706C27.8481 16.9741 28.2353 15.5911 28.2353 14.1176C28.2353 9.59571 24.5906 5.92496 20.0787 5.88269Z" fill="#F39A2E"/>
</g>
<defs>
<clipPath id="clip0_166_12">
<rect width="40" height="40" fill="white"/>
</clipPath>
</defs>
</svg>
