<svg width="40" height="40" viewBox="0 0 40 40" fill="none" xmlns="http://www.w3.org/2000/svg">
<g clip-path="url(#clip0_155_363)">
<path d="M8.28125 28.2812C5.01508 28.2812 2.42188 30.9539 2.42188 34.1406C2.42188 37.3713 5.05055 40 8.28125 40C11.512 40 14.1406 37.3713 14.1406 34.1406C14.1406 30.9099 11.512 28.2812 8.28125 28.2812ZM9.45312 35.3125H7.10938V32.9688H9.45312V35.3125Z" fill="#F39A2E"/>
<path d="M31.7188 28.279C28.4038 28.2358 25.8584 30.8966 25.8594 34.1406C25.8594 37.3713 28.488 40 31.7188 40C34.9495 40 37.5781 37.3713 37.5781 34.1406C37.5781 33.1549 36.762 28.3445 31.7188 28.279ZM32.8906 35.3125H30.5469V32.9687H32.8906V35.3125Z" fill="#F39A2E"/>
<path d="M40 18.9062H0V14.2188H40V18.9062Z" fill="#F39A2E"/>
<path d="M35.9589 11.875L34.787 9.53125H30.547V7.635L25.8595 5.29125V2.9475L20.0002 0L15.5438 2.24594L13.2001 0L7.10953 2.9475V7.635L2.02148 10.179L2.86953 11.875H35.9589Z" fill="#F39A2E"/>
<path d="M2.75 21.25L4.6107 26.8177C5.84648 26.1933 7.15266 25.9375 8.28148 25.9375C12.8042 25.9375 16.4846 29.6179 16.4846 34.1406C16.4846 34.5419 16.4221 34.9264 16.3662 35.3125H23.6343C23.5784 34.9264 23.5159 34.5419 23.5159 34.1406C23.5135 29.6156 27.0765 25.9352 31.64 25.9352C33.1655 25.9352 34.3373 26.2868 35.387 26.8262L37.2505 21.25H2.75Z" fill="#F39A2E"/>
</g>
<defs>
<clipPath id="clip0_155_363">
<rect width="40" height="40" fill="white"/>
</clipPath>
</defs>
</svg>
