<svg width="40" height="40" viewBox="0 0 40 40" fill="none" xmlns="http://www.w3.org/2000/svg">
<g clip-path="url(#clip0_203_222)">
<path d="M18.6665 33.7255H21.3332V40H18.6665V33.7255Z" fill="#F39A2E"/>
<path d="M0 11.9215H7.37255V39.9999H0V11.9215Z" fill="#F39A2E"/>
<path d="M32.314 16.3137H40.0002V40H32.314V16.3137Z" fill="#F39A2E"/>
<path d="M26.1959 0H16.941V5.01961H10.0391V40H16.3136V31.3726H23.6861V40H29.9606V5.01961H26.1959V0ZM17.49 27.451H14.9802V25.098H17.49V27.451ZM17.49 22.4314H14.9802V20.0784H17.49V22.4314ZM17.49 17.4118H14.9802V15.0588H17.49V17.4118ZM17.49 12.3922H14.9802V10.0392H17.49V12.3922ZM25.0195 27.451H22.5097V25.098H25.0195V27.451ZM25.0195 22.4314H22.5097V20.0784H25.0195V22.4314ZM25.0195 17.4118H22.5097V15.0588H25.0195V17.4118ZM25.0195 12.3922H22.5097V10.0392H25.0195V12.3922Z" fill="#F39A2E"/>
</g>
<defs>
<clipPath id="clip0_203_222">
<rect width="40" height="40" fill="white"/>
</clipPath>
</defs>
</svg>
