<svg width="40" height="40" viewBox="0 0 40 40" fill="none" xmlns="http://www.w3.org/2000/svg">
<g clip-path="url(#clip0_155_374)">
<path d="M11.756 33.2135L10.0986 31.5562L3.31329 38.3415L4.97061 39.9988L11.756 33.2135Z" fill="#F39A2E"/>
<path d="M8.44394 29.9007L6.78662 28.2434L0.00127983 35.0287L1.6586 36.6861L8.44394 29.9007Z" fill="#F39A2E"/>
<path d="M9.27115 20.785L5.95654 24.0996L12.5857 27.4142L15.9003 34.0433L19.2148 30.7287L18.1103 25.2042L38.2467 7.60525C40.0162 6.09393 40.2719 3.41557 38.4281 1.57166C36.5773 -0.279121 33.8993 -0.00873068 32.3945 1.75307L14.7956 21.8896L9.27115 20.785Z" fill="#F39A2E"/>
<path d="M31.8085 16.3457L24.7139 22.5468L36.8277 34.6606L38.8921 32.5964C39.6292 31.8591 39.7903 30.7093 39.2837 29.8013L31.8085 16.3457Z" fill="#F39A2E"/>
<path d="M23.654 8.19168L10.1995 0.717223C9.29068 0.209801 8.14084 0.370894 7.40357 1.108L5.33936 3.17246L17.4531 15.2862L23.654 8.19168Z" fill="#F39A2E"/>
<path d="M35.9989 18.9165L35.9468 18.9686L38.3141 23.2304L39.3133 22.2312C40.2287 21.316 40.2287 19.832 39.3133 18.9166C38.3982 18.0013 36.9141 18.0013 35.9989 18.9165Z" fill="#F39A2E"/>
<path d="M21.0837 4.00095C21.9989 3.08572 21.9989 1.60173 21.0837 0.686421C20.1683 -0.22897 18.6843 -0.22897 17.7691 0.686421L16.7695 1.68595L21.0315 4.05314L21.0837 4.00095Z" fill="#F39A2E"/>
</g>
<defs>
<clipPath id="clip0_155_374">
<rect width="40" height="40" fill="white"/>
</clipPath>
</defs>
</svg>
