<svg width="38" height="38" viewBox="0 0 38 38" fill="none" xmlns="http://www.w3.org/2000/svg">
<g clip-path="url(#clip0_155_342)">
<path d="M21.2722 4.55732L19.023 0H18.9772L16.728 4.55732L11.6981 5.28822L11.6841 5.33126L15.3239 8.87908L14.4644 13.8897L14.5003 13.9158L19.0001 11.5501L23.4999 13.9158L23.5358 13.8897L22.6764 8.87908L26.3161 5.33126L26.3022 5.28822L21.2722 4.55732Z" fill="#F39A2E"/>
<path d="M0.000488281 24.9605H11.1826V32.8783H0.000488281V24.9605Z" fill="#F39A2E"/>
<path d="M0.000488281 35.1049H11.1826V38H0.000488281V35.1049Z" fill="#F39A2E"/>
<path d="M13.4092 17.366H24.5913V32.8783H13.4092V17.366Z" fill="#F39A2E"/>
<path d="M13.4092 35.1049H24.5913V38H13.4092V35.1049Z" fill="#F39A2E"/>
<path d="M26.8174 21.4486H37.9995V32.8783H26.8174V21.4486Z" fill="#F39A2E"/>
<path d="M26.8174 35.1049H37.9995V38H26.8174V35.1049Z" fill="#F39A2E"/>
</g>
<defs>
<clipPath id="clip0_155_342">
<rect width="38" height="38" fill="white"/>
</clipPath>
</defs>
</svg>
