<svg width="27" height="11" viewBox="0 0 27 11" fill="none" xmlns="http://www.w3.org/2000/svg">
<path d="M26.3769 6.0504H0.623075C0.316729 6.0504 0.0692291 5.8029 0.0692291 5.49655C0.0692291 5.19021 0.316729 4.94271 0.623075 4.94271H25.039L21.6779 1.58155C21.4615 1.36521 21.4615 1.01386 21.6779 0.797514C21.8942 0.581167 22.2456 0.581167 22.4619 0.797514L26.7698 5.1054C26.929 5.26463 26.9758 5.50174 26.8892 5.70944C26.8027 5.9154 26.6002 6.0504 26.3769 6.0504Z" fill="white"/>
<path d="M22.0639 10.3635C21.9219 10.3635 21.78 10.3098 21.6727 10.2008C21.4564 9.98444 21.4564 9.63309 21.6727 9.41674L25.9858 5.10367C26.2021 4.88732 26.5535 4.88732 26.7698 5.10367C26.9862 5.32001 26.9862 5.67136 26.7698 5.88771L22.4567 10.2008C22.3477 10.3098 22.2058 10.3635 22.0639 10.3635Z" fill="white"/>
</svg>
