<svg width="258" height="54" viewBox="0 0 258 54" fill="none" xmlns="http://www.w3.org/2000/svg">
<g clip-path="url(#clip0_40_3614)">
<path fill-rule="evenodd" clip-rule="evenodd" d="M155.039 4.91448L143.312 30.8715L140.187 7.50773H129.735L121.369 30.5263L117.311 11.5452H106.859L115.345 45.5929H125.793L132.716 26.6493L135.478 45.5964H145.935L166.331 4.91572L155.039 4.91448Z" fill="white"/>
<path fill-rule="evenodd" clip-rule="evenodd" d="M183.027 -7.99997H172.32L166.068 5.06532H176.275L183.027 -7.99997Z" fill="white"/>
<path fill-rule="evenodd" clip-rule="evenodd" d="M223.085 25.9817V21.4361C223.085 15.4073 216.846 13.814 212.957 13.814C212.957 13.814 213.554 13.8242 212.957 13.8242C212.615 13.8242 190.738 13.7955 190.738 13.7955V45.9999H200.453V19.8315L210.656 19.8289C214.007 19.8289 214.299 21.2464 214.299 22.2866C214.299 23.1979 214.299 26.0823 214.299 26.0823C214.299 26.0823 214.349 28.5591 211.064 28.5591C208.772 28.5591 203.664 28.5591 203.664 28.5591L213.165 45.9629H223.4L216.32 33.9748C220.491 33.4639 223.085 31.3953 223.085 25.9816V25.9817Z" fill="white"/>
<path fill-rule="evenodd" clip-rule="evenodd" d="M23.7666 26.5849C19.401 26.5849 23.7666 26.578 23.7666 26.578L10.7414 26.5964V19.1855H30.751V13.462H8.35925C2.09981 13.462 0 16.5829 0 16.5829V29.7868C0 29.7868 2.333 32.2291 8.80526 32.2291C12.4743 32.2291 21.2838 32.2291 21.2838 32.2291V39.9257H0.173637V46H24.6272C29.4263 46 31.8016 43.2941 31.8016 43.2941V29.5706C31.8016 29.5706 29.7841 26.5849 23.7668 26.5849H23.7666Z" fill="white"/>
<path fill-rule="evenodd" clip-rule="evenodd" d="M57.4731 13.6923V39.9258H45.5235L45.5113 13.6923H34.8459V41.5172C34.8459 41.5172 36.9105 46 44.2862 46C52.0514 45.9961 58.6829 45.9927 58.6829 45.9927C65.2938 45.9927 67.7668 42.4216 67.7668 42.4216L67.771 42.375L67.7729 13.6923H57.4733H57.4731Z" fill="white"/>
<path fill-rule="evenodd" clip-rule="evenodd" d="M94.2409 11.5452V32.5308L81.2573 13.951L70.7697 13.9611V46H81.0477V25.926L95.0724 45.963H104.523V11.5452H94.2409Z" fill="white"/>
<path fill-rule="evenodd" clip-rule="evenodd" d="M190.841 46L177.158 13.8234H167.035L151.822 46H162.578L171.724 23.2819L180.446 46H190.841Z" fill="white"/>
<path fill-rule="evenodd" clip-rule="evenodd" d="M245.294 14.0518V14.0578H226.028V46.0001L240.862 45.9948C248.638 45.9948 258 44.6674 258 34.642V25.114C258 13.3424 245.294 14.0519 245.294 14.0519L245.294 14.0518ZM248.726 35.469C248.726 35.469 248.502 39.9918 243.034 39.9918C240.199 39.9918 237.501 39.9918 235.123 39.9933V20.2357L242.364 20.2319C242.364 20.2319 248.726 19.6903 248.726 25.0585C248.726 29.7868 248.726 35.469 248.726 35.469Z" fill="white"/>
</g>
<defs>
<clipPath id="clip0_40_3614">
<rect width="258" height="54" fill="white"/>
</clipPath>
</defs>
</svg>
