<svg width="221" height="77" viewBox="0 0 221 77" fill="none" xmlns="http://www.w3.org/2000/svg">
<g clip-path="url(#clip0_158_3728)">
<path fill-rule="evenodd" clip-rule="evenodd" d="M132.36 11.8999L122.422 34.5502L119.774 14.1628H110.917L103.827 34.249L100.388 17.6859H91.5308L98.7216 47.3962H107.576L113.442 30.8659L115.783 47.3993H124.645L141.93 11.901L132.36 11.8999Z" fill="white"/>
<path fill-rule="evenodd" clip-rule="evenodd" d="M156.08 0.631363H147.006L141.708 12.0322H150.357L156.08 0.631363Z" fill="white"/>
<path fill-rule="evenodd" clip-rule="evenodd" d="M190.026 30.2834V26.3169C190.026 21.0561 184.739 19.6657 181.443 19.6657C181.443 19.6657 181.949 19.6747 181.443 19.6747C181.153 19.6747 162.614 19.6496 162.614 19.6496V47.7514H170.846V24.9167L179.493 24.9144C182.332 24.9144 182.581 26.1514 182.581 27.0591C182.581 27.8542 182.581 30.3712 182.581 30.3712C182.581 30.3712 182.622 32.5325 179.839 32.5325C177.896 32.5325 173.568 32.5325 173.568 32.5325L181.619 47.7191H190.293L184.293 37.2582C187.828 36.8124 190.026 35.0073 190.026 30.2833V30.2834Z" fill="white"/>
<path fill-rule="evenodd" clip-rule="evenodd" d="M21.1154 30.8103C17.4158 30.8103 21.1154 30.8043 21.1154 30.8043L10.0774 30.8204V24.3535H27.0344V19.3591H8.0586C2.75408 19.3591 0.974609 22.0825 0.974609 22.0825V33.6043C0.974609 33.6043 2.95169 35.7355 8.43657 35.7355C11.5459 35.7355 19.0114 35.7355 19.0114 35.7355V42.4516H1.12176V47.752H21.8448C25.9118 47.752 27.9246 45.3909 27.9246 45.3909V33.4157C27.9246 33.4157 26.2149 30.8103 21.1156 30.8103H21.1154Z" fill="white"/>
<path fill-rule="evenodd" clip-rule="evenodd" d="M49.6801 19.5597V42.4512H39.5535L39.5432 19.5597H30.5049V43.8399C30.5049 43.8399 32.2545 47.7515 38.505 47.7515C45.0855 47.7482 50.7053 47.7452 50.7053 47.7452C56.3077 47.7452 58.4034 44.629 58.4034 44.629L58.407 44.5884L58.4087 19.5597H49.6803H49.6801Z" fill="white"/>
<path fill-rule="evenodd" clip-rule="evenodd" d="M80.8388 17.6865V35.9987L69.8359 19.7859L60.9482 19.7947V47.752H69.6583V30.2354L81.5434 47.7197H89.5525V17.6865H80.8388Z" fill="white"/>
<path fill-rule="evenodd" clip-rule="evenodd" d="M162.702 47.7512L151.107 19.6737H142.528L129.636 47.7512H138.751L146.501 27.9273L153.892 47.7512H162.702Z" fill="white"/>
<path fill-rule="evenodd" clip-rule="evenodd" d="M208.848 19.8733V19.8785H192.521V47.7516L205.092 47.747C211.681 47.747 219.615 46.5887 219.615 37.8404V29.5262C219.615 19.2542 208.848 19.8734 208.848 19.8734L208.848 19.8733ZM211.756 38.5621C211.756 38.5621 211.566 42.5087 206.932 42.5087C204.53 42.5087 202.244 42.5087 200.228 42.51V25.2694L206.365 25.2661C206.365 25.2661 211.756 24.7935 211.756 29.4778C211.756 33.6038 211.756 38.5621 211.756 38.5621Z" fill="white"/>
</g>
<path d="M1.32987 58.2452V70.1963H2.89026V59.5396H8.44026V70.1963H10.0006V58.2452H1.32987ZM12.6191 73.7072H14.1618V69.0437H14.1972C14.7114 69.8949 15.7044 70.3913 16.8392 70.3913C18.8607 70.3913 20.7579 68.8664 20.7579 65.7811C20.7579 63.1923 19.1976 61.4369 17.1052 61.4369C15.7044 61.4369 14.676 62.0397 14.0554 63.0859H14.0199L13.9313 61.6142H12.5482C12.5837 62.4298 12.6191 63.3164 12.6191 64.4158V73.7072ZM14.1618 65.2137C14.1618 65.0186 14.215 64.7881 14.2682 64.5931C14.5519 63.4228 15.5626 62.6781 16.6265 62.6781C18.2755 62.6781 19.1798 64.1498 19.1798 65.852C19.1798 67.8202 18.2223 69.1679 16.5733 69.1679C15.4562 69.1679 14.5164 68.4231 14.2327 67.3415C14.1795 67.1464 14.1618 66.9337 14.1618 66.7032V65.2137ZM29.612 66.1889C29.6475 66.0116 29.6652 65.7811 29.6652 65.4619C29.6652 63.8838 28.9382 61.4369 26.1189 61.4369C23.6187 61.4369 22.0938 63.4583 22.0938 66.0471C22.0938 68.6359 23.6719 70.3913 26.3139 70.3913C27.6792 70.3913 28.6367 70.0899 29.1864 69.8417L28.9027 68.7246C28.3353 68.9728 27.6438 69.1679 26.5267 69.1679C24.9486 69.1679 23.6187 68.299 23.5832 66.1889H29.612ZM23.601 65.0718C23.7251 63.9902 24.3989 62.5539 25.9947 62.5539C27.7502 62.5539 28.1757 64.0966 28.158 65.0718H23.601ZM32.5715 61.6142V63.8484C32.5715 65.0541 32.4119 66.2067 32.075 67.2706C31.88 67.8912 31.5963 68.4763 31.2239 69.026L30.4969 69.0615L30.5678 72.9092H31.7736L31.8622 70.1963H37.8023L37.8733 72.9092H39.0968L39.1854 69.0437L38.2988 69.026V61.6142H32.5715ZM33.9368 62.8022H36.7739V69.0083H32.8198C33.0857 68.5295 33.3162 67.9976 33.4936 67.4124C33.795 66.4549 33.9368 65.3555 33.9368 64.203V62.8022ZM46.8343 68.7246C46.391 68.9196 45.8058 69.1324 44.9192 69.1324C43.217 69.1324 41.9403 67.9089 41.9403 65.923C41.9403 64.1498 43.0042 62.6781 44.9724 62.6781C45.8236 62.6781 46.4087 62.8909 46.7811 63.0859L47.1357 61.8979C46.7101 61.6674 45.8945 61.4369 44.9724 61.4369C42.1708 61.4369 40.3622 63.3696 40.3622 66.0116C40.3622 68.6359 42.0467 70.3913 44.6355 70.3913C45.7881 70.3913 46.6924 70.0899 47.1002 69.8949L46.8343 68.7246ZM48.0909 61.6142V62.8377H50.7683V70.1963H52.3287V62.8377H55.0062V61.6142H48.0909ZM62.2843 64.93C62.2843 63.2278 61.646 61.4369 59.0217 61.4369C57.9401 61.4369 56.8939 61.7383 56.1847 62.1816L56.5393 63.2278C57.1422 62.8199 57.9756 62.5894 58.7912 62.5894C60.5466 62.5717 60.7417 63.8661 60.7417 64.5576V64.7349C57.4259 64.7172 55.5818 65.852 55.5818 67.9266C55.5818 69.1679 56.4684 70.3913 58.2061 70.3913C59.4295 70.3913 60.3516 69.7885 60.8303 69.1147H60.8835L61.0077 70.1963H62.4085C62.3198 69.6111 62.2843 68.8841 62.2843 68.1394V64.93ZM60.7772 67.306C60.7772 67.4479 60.7594 67.6252 60.7062 67.8025C60.458 68.5295 59.731 69.2388 58.5962 69.2388C57.816 69.2388 57.1422 68.7778 57.1422 67.7493C57.1422 66.0825 59.0749 65.7811 60.7772 65.8166V67.306ZM64.7565 70.1963C65.2175 70.2318 66.2283 70.3027 67.1858 70.3027C68.8703 70.3027 71.7073 70.019 71.7073 67.7671C71.7073 66.5258 70.7853 65.8343 69.5263 65.657V65.6215C70.5016 65.4087 71.3172 64.7349 71.3172 63.671C71.3172 61.7738 68.9412 61.5255 67.4872 61.5255C66.4942 61.5255 65.3771 61.6142 64.7565 61.7206V70.1963ZM66.2637 62.6781C66.6183 62.6426 66.9375 62.6071 67.4695 62.6071C69.0299 62.6071 69.7746 63.015 69.7746 63.8661C69.7746 64.8945 68.5866 65.2314 67.434 65.2314H66.2637V62.6781ZM66.246 66.2421H67.3808C68.8525 66.2421 70.1115 66.5081 70.1115 67.7493C70.1115 69.0083 68.5511 69.2388 67.4872 69.2388C67.0084 69.2388 66.6893 69.221 66.246 69.1856V66.2421ZM73.6223 61.6142V70.1963H75.431C76.3353 68.6891 77.2928 67.0401 78.1085 65.7102C78.6227 64.8413 78.9773 64.1498 79.5447 63.0327H79.5802C79.5093 64.4335 79.4738 65.1605 79.4738 66.5613V70.1963H80.9633V61.6142H79.1369L76.4594 66.0471C75.8743 67.0401 75.5906 67.6429 75.0586 68.6891L75.0054 68.6714C75.0763 67.4479 75.1118 66.579 75.1118 65.2314V61.6142H73.6223ZM82.3247 61.6142V62.8377H85.0022V70.1963H86.5626V62.8377H89.2401V61.6142H82.3247ZM97.2832 66.1889C97.3186 66.0116 97.3363 65.7811 97.3363 65.4619C97.3363 63.8838 96.6094 61.4369 93.79 61.4369C91.2899 61.4369 89.7649 63.4583 89.7649 66.0471C89.7649 68.6359 91.3431 70.3913 93.9851 70.3913C95.3504 70.3913 96.3079 70.0899 96.8576 69.8417L96.5739 68.7246C96.0065 68.9728 95.3149 69.1679 94.1978 69.1679C92.6197 69.1679 91.2899 68.299 91.2544 66.1889H97.2832ZM91.2721 65.0718C91.3962 63.9902 92.07 62.5539 93.6659 62.5539C95.4213 62.5539 95.8469 64.0966 95.8292 65.0718H91.2721ZM99.834 61.6142V65.0364C99.834 66.9514 99.7454 68.1571 98.9474 68.7423C98.7347 68.9196 98.3978 69.0437 98.0963 69.0969L98.2559 70.3204C99.0538 70.3204 99.5326 70.1254 99.9581 69.7885C101.075 69.0615 101.306 67.4479 101.306 65.0364V62.8377H104.249V70.1963H105.81V61.6142H99.834ZM108.289 61.6142V70.1608C108.945 70.2318 109.743 70.2849 110.594 70.2849C111.853 70.2849 113.396 70.0899 114.336 69.292C114.885 68.831 115.24 68.2103 115.24 67.3238C115.24 65.0364 113.201 64.4158 111.268 64.4158C110.807 64.4158 110.222 64.4512 109.849 64.5044V61.6142H108.289ZM109.832 65.6393C110.204 65.5683 110.541 65.5329 110.949 65.5329C112.119 65.5329 113.68 65.8698 113.68 67.3592C113.68 68.7778 112.155 69.1679 111.002 69.1679C110.488 69.1679 110.151 69.1501 109.832 69.0969V65.6393ZM123.025 68.7246C122.582 68.9196 121.996 69.1324 121.11 69.1324C119.408 69.1324 118.131 67.9089 118.131 65.923C118.131 64.1498 119.195 62.6781 121.163 62.6781C122.014 62.6781 122.599 62.8909 122.972 63.0859L123.326 61.8979C122.901 61.6674 122.085 61.4369 121.163 61.4369C118.362 61.4369 116.553 63.3696 116.553 66.0116C116.553 68.6359 118.237 70.3913 120.826 70.3913C121.979 70.3913 122.883 70.0899 123.291 69.8949L123.025 68.7246ZM124.282 61.6142V62.8377H126.959V70.1963H128.519V62.8377H131.197V61.6142H124.282ZM132.514 70.1963C132.975 70.2318 133.986 70.3027 134.944 70.3027C136.628 70.3027 139.465 70.019 139.465 67.7671C139.465 66.5258 138.543 65.8343 137.284 65.657V65.6215C138.259 65.4087 139.075 64.7349 139.075 63.671C139.075 61.7738 136.699 61.5255 135.245 61.5255C134.252 61.5255 133.135 61.6142 132.514 61.7206V70.1963ZM134.021 62.6781C134.376 62.6426 134.695 62.6071 135.227 62.6071C136.788 62.6071 137.532 63.015 137.532 63.8661C137.532 64.8945 136.344 65.2314 135.192 65.2314H134.021V62.6781ZM134.004 66.2421H135.139C136.61 66.2421 137.869 66.5081 137.869 67.7493C137.869 69.0083 136.309 69.2388 135.245 69.2388C134.766 69.2388 134.447 69.221 134.004 69.1856V66.2421ZM145.068 61.4369C142.71 61.4369 140.813 63.1214 140.813 65.9762C140.813 68.6891 142.621 70.3913 144.926 70.3913C146.983 70.3913 149.2 69.0083 149.2 65.8343C149.2 63.2278 147.533 61.4369 145.068 61.4369ZM145.033 62.6071C146.877 62.6071 147.604 64.4335 147.604 65.8875C147.604 67.8202 146.487 69.221 144.997 69.221C143.472 69.221 142.409 67.8025 142.409 65.923C142.409 64.3094 143.206 62.6071 145.033 62.6071ZM154.869 70.1963C155.33 70.2318 156.341 70.3027 157.299 70.3027C158.983 70.3027 161.82 70.019 161.82 67.7671C161.82 66.5258 160.898 65.8343 159.639 65.657V65.6215C160.614 65.4087 161.43 64.7349 161.43 63.671C161.43 61.7738 159.054 61.5255 157.6 61.5255C156.607 61.5255 155.49 61.6142 154.869 61.7206V70.1963ZM156.376 62.6781C156.731 62.6426 157.05 62.6071 157.582 62.6071C159.143 62.6071 159.887 63.015 159.887 63.8661C159.887 64.8945 158.699 65.2314 157.547 65.2314H156.376V62.6781ZM156.359 66.2421H157.494C158.965 66.2421 160.224 66.5081 160.224 67.7493C160.224 69.0083 158.664 69.2388 157.6 69.2388C157.121 69.2388 156.802 69.221 156.359 69.1856V66.2421ZM167.599 70.1963H169.142V65.4087C169.496 65.4974 169.922 65.5151 170.383 65.5151C171.89 65.5151 173.202 65.0718 174.036 64.203C174.639 63.5824 174.958 62.7313 174.958 61.6496C174.958 60.5857 174.55 59.7169 173.912 59.1495C173.202 58.5111 172.085 58.1565 170.56 58.1565C169.319 58.1565 168.344 58.2629 167.599 58.387V70.1963ZM169.142 59.5041C169.408 59.4332 169.922 59.38 170.596 59.38C172.28 59.38 173.415 60.1424 173.415 61.7383C173.415 63.3519 172.28 64.2739 170.418 64.2739C169.904 64.2739 169.479 64.2385 169.142 64.1498V59.5041ZM180.116 61.4369C177.758 61.4369 175.86 63.1214 175.86 65.9762C175.86 68.6891 177.669 70.3913 179.974 70.3913C182.031 70.3913 184.247 69.0083 184.247 65.8343C184.247 63.2278 182.581 61.4369 180.116 61.4369ZM180.081 62.6071C181.925 62.6071 182.652 64.4335 182.652 65.8875C182.652 67.8202 181.535 69.221 180.045 69.221C178.52 69.221 177.456 67.8025 177.456 65.923C177.456 64.3094 178.254 62.6071 180.081 62.6071ZM192.064 68.7246C191.621 68.9196 191.036 69.1324 190.149 69.1324C188.447 69.1324 187.17 67.9089 187.17 65.923C187.17 64.1498 188.234 62.6781 190.202 62.6781C191.053 62.6781 191.639 62.8909 192.011 63.0859L192.366 61.8979C191.94 61.6674 191.124 61.4369 190.202 61.4369C187.401 61.4369 185.592 63.3696 185.592 66.0116C185.592 68.6359 187.277 70.3913 189.865 70.3913C191.018 70.3913 191.922 70.0899 192.33 69.8949L192.064 68.7246ZM199.908 68.7246C199.465 68.9196 198.88 69.1324 197.993 69.1324C196.291 69.1324 195.014 67.9089 195.014 65.923C195.014 64.1498 196.078 62.6781 198.046 62.6781C198.898 62.6781 199.483 62.8909 199.855 63.0859L200.21 61.8979C199.784 61.6674 198.968 61.4369 198.046 61.4369C195.245 61.4369 193.436 63.3696 193.436 66.0116C193.436 68.6359 195.121 70.3913 197.71 70.3913C198.862 70.3913 199.766 70.0899 200.174 69.8949L199.908 68.7246ZM201.952 61.6142V70.1963H203.76C204.665 68.6891 205.622 67.0401 206.438 65.7102C206.952 64.8413 207.307 64.1498 207.874 63.0327H207.909C207.839 64.4335 207.803 65.1605 207.803 66.5613V70.1963H209.293V61.6142H207.466L204.789 66.0471C204.204 67.0401 203.92 67.6429 203.388 68.6891L203.335 68.6714C203.406 67.4479 203.441 66.579 203.441 65.2314V61.6142H201.952ZM211.77 61.6142V70.1963H213.578C214.483 68.6891 215.44 67.0401 216.256 65.7102C216.77 64.8413 217.125 64.1498 217.692 63.0327H217.728C217.657 64.4335 217.621 65.1605 217.621 66.5613V70.1963H219.111V61.6142H217.284L214.607 66.0471C214.022 67.0401 213.738 67.6429 213.206 68.6891L213.153 68.6714C213.224 67.4479 213.259 66.579 213.259 65.2314V61.6142H211.77Z" fill="white"/>
<defs>
<clipPath id="clip0_158_3728">
<rect width="218.64" height="47.1208" fill="white" transform="translate(0.974609 0.631348)"/>
</clipPath>
</defs>
</svg>
