<svg width="225" height="78" viewBox="0 0 225 78" fill="none" xmlns="http://www.w3.org/2000/svg">
<g clip-path="url(#clip0_102_73)">
<path fill-rule="evenodd" clip-rule="evenodd" d="M134.66 11.4646L124.549 34.5083L121.855 13.7668H112.844L105.631 34.2019L102.133 17.3511H93.1215L100.437 47.5775H109.445L115.414 30.76L117.795 47.5806H126.811L144.396 11.4657L134.66 11.4646Z" fill="#E32124"/>
<path fill-rule="evenodd" clip-rule="evenodd" d="M158.79 0H149.559L144.168 11.5989H152.969L158.79 0Z" fill="#E32124"/>
<path fill-rule="evenodd" clip-rule="evenodd" d="M193.327 30.1674V26.132C193.327 20.7798 187.948 19.3653 184.595 19.3653C184.595 19.3653 185.11 19.3744 184.595 19.3744C184.3 19.3744 165.439 19.3489 165.439 19.3489V47.9388H173.814V24.7074L182.611 24.7051C185.5 24.7051 185.752 25.9636 185.752 26.887C185.752 27.696 185.752 30.2567 185.752 30.2567C185.752 30.2567 185.795 32.4555 182.963 32.4555C180.986 32.4555 176.583 32.4555 176.583 32.4555L184.774 47.906H193.598L187.494 37.2633C191.09 36.8098 193.327 34.9734 193.327 30.1673V30.1674Z" fill="#3F4291"/>
<path fill-rule="evenodd" clip-rule="evenodd" d="M21.4819 30.7028C17.718 30.7028 21.4819 30.6967 21.4819 30.6967L10.2521 30.713V24.1339H27.5036V19.0527H8.19825C2.80159 19.0527 0.991211 21.8234 0.991211 21.8234V33.5454C0.991211 33.5454 3.00264 35.7135 8.58279 35.7135C11.7461 35.7135 19.3413 35.7135 19.3413 35.7135V42.5463H1.14091V47.9388H22.2239C26.3615 47.9388 28.4094 45.5367 28.4094 45.5367V33.3535C28.4094 33.3535 26.67 30.7028 21.4821 30.7028H21.4819Z" fill="#3F4291"/>
<path fill-rule="evenodd" clip-rule="evenodd" d="M50.5425 19.2573V42.5465H40.24L40.2295 19.2573H31.0342V43.9593C31.0342 43.9593 32.8142 47.9389 39.1732 47.9389C45.8681 47.9355 51.5855 47.9325 51.5855 47.9325C57.2852 47.9325 59.4173 44.7621 59.4173 44.7621L59.4209 44.7208L59.4226 19.2573H50.5427H50.5425Z" fill="#3F4291"/>
<path fill-rule="evenodd" clip-rule="evenodd" d="M82.2425 17.3513V35.9816L71.0486 19.4872L62.0065 19.4961V47.9391H70.8679V30.1181L82.9594 47.9062H91.1076V17.3513H82.2425Z" fill="#3F4291"/>
<path fill-rule="evenodd" clip-rule="evenodd" d="M165.527 47.9387L153.731 19.3735H145.003L131.887 47.9387H141.16L149.045 27.7704L156.565 47.9387H165.527Z" fill="#3F4291"/>
<path fill-rule="evenodd" clip-rule="evenodd" d="M212.475 19.5765V19.5818H195.864V47.9391L208.654 47.9344C215.357 47.9344 223.429 46.756 223.429 37.8558V29.3972C223.429 18.9467 212.475 19.5766 212.475 19.5766L212.475 19.5765ZM215.434 38.59C215.434 38.59 215.241 42.6052 210.526 42.6052C208.082 42.6052 205.756 42.6052 203.705 42.6065V25.0664L209.949 25.063C209.949 25.063 215.434 24.5822 215.434 29.3479C215.434 33.5455 215.434 38.59 215.434 38.59Z" fill="#3F4291"/>
</g>
<path d="M1.35297 59.3539V71.5126H2.94046V60.6707H8.58687V71.5126H10.1744V59.3539H1.35297ZM12.8383 75.0844H14.4078V70.34H14.4438C14.967 71.2059 15.9772 71.711 17.1317 71.711C19.1883 71.711 21.1185 70.1596 21.1185 67.0207C21.1185 64.3869 19.531 62.601 17.4023 62.601C15.9772 62.601 14.9309 63.2143 14.2995 64.2787H14.2634L14.1732 62.7814H12.7662C12.8022 63.6112 12.8383 64.5132 12.8383 65.6316V75.0844ZM14.4078 66.4434C14.4078 66.245 14.4619 66.0105 14.516 65.812C14.8046 64.6214 15.8329 63.8638 16.9153 63.8638C18.593 63.8638 19.513 65.3611 19.513 67.0929C19.513 69.0953 18.5388 70.4663 16.8612 70.4663C15.7247 70.4663 14.7686 69.7086 14.4799 68.6082C14.4258 68.4098 14.4078 68.1933 14.4078 67.9588V66.4434ZM30.1264 67.4356C30.1624 67.2552 30.1805 67.0207 30.1805 66.696C30.1805 65.0905 29.4408 62.601 26.5725 62.601C24.029 62.601 22.4775 64.6575 22.4775 67.2913C22.4775 69.9251 24.0831 71.711 26.771 71.711C28.16 71.711 29.1342 71.4043 29.6934 71.1518L29.4048 70.0153C28.8275 70.2678 28.124 70.4663 26.9875 70.4663C25.3819 70.4663 24.029 69.5823 23.9929 67.4356H30.1264ZM24.0109 66.2991C24.1372 65.1987 24.8227 63.7375 26.4463 63.7375C28.2322 63.7375 28.6651 65.3069 28.6471 66.2991H24.0109ZM33.1373 62.7814V65.0544C33.1373 66.2811 32.9749 67.4537 32.6322 68.536C32.4337 69.1674 32.1451 69.7627 31.7663 70.322L31.0266 70.358L31.0988 74.2726H32.3255L32.4157 71.5126H38.459L38.5311 74.2726H39.7759L39.8661 70.34L38.9641 70.322V62.7814H33.1373ZM34.5263 63.99H37.4127V70.3039H33.3898C33.6604 69.8168 33.8949 69.2757 34.0753 68.6803C34.382 67.7062 34.5263 66.5877 34.5263 65.4152V63.99ZM47.6478 70.0153C47.1968 70.2137 46.6015 70.4302 45.6995 70.4302C43.9677 70.4302 42.6688 69.1855 42.6688 67.165C42.6688 65.3611 43.7512 63.8638 45.7536 63.8638C46.6195 63.8638 47.2148 64.0802 47.5937 64.2787L47.9545 63.07C47.5215 62.8355 46.6917 62.601 45.7536 62.601C42.9034 62.601 41.0633 64.5673 41.0633 67.2552C41.0633 69.9251 42.7771 71.711 45.4109 71.711C46.5834 71.711 47.5035 71.4043 47.9184 71.2059L47.6478 70.0153ZM48.9262 62.7814V64.0261H51.6502V71.5126H53.2377V64.0261H55.9617V62.7814H48.9262ZM63.3662 66.1548C63.3662 64.423 62.7168 62.601 60.0469 62.601C58.9465 62.601 57.8822 62.9077 57.1606 63.3587L57.5214 64.423C58.1347 64.0081 58.9826 63.7736 59.8124 63.7736C61.5984 63.7555 61.7968 65.0724 61.7968 65.776V65.9564C58.4234 65.9383 56.5473 67.0929 56.5473 69.2035C56.5473 70.4663 57.4492 71.711 59.2171 71.711C60.4619 71.711 61.3999 71.0977 61.887 70.4122H61.9411L62.0674 71.5126H63.4925C63.4023 70.9173 63.3662 70.1776 63.3662 69.42V66.1548ZM61.8329 68.5721C61.8329 68.7164 61.8148 68.8968 61.7607 69.0772C61.5082 69.8168 60.7685 70.5384 59.614 70.5384C58.8202 70.5384 58.1347 70.0694 58.1347 69.0231C58.1347 67.3274 60.1011 67.0207 61.8329 67.0568V68.5721ZM65.8814 71.5126C66.3504 71.5487 67.3787 71.6208 68.3528 71.6208C70.0666 71.6208 72.9529 71.3322 72.9529 69.0411C72.9529 67.7784 72.0148 67.0748 70.734 66.8944V66.8583C71.7262 66.6419 72.556 65.9564 72.556 64.874C72.556 62.9437 70.1387 62.6912 68.6595 62.6912C67.6492 62.6912 66.5127 62.7814 65.8814 62.8896V71.5126ZM67.4147 63.8638C67.7755 63.8277 68.1002 63.7916 68.6414 63.7916C70.2289 63.7916 70.9866 64.2065 70.9866 65.0724C70.9866 66.1187 69.7779 66.4615 68.6053 66.4615H67.4147V63.8638ZM67.3967 67.4897H68.5512C70.0485 67.4897 71.3293 67.7603 71.3293 69.0231C71.3293 70.3039 69.7418 70.5384 68.6595 70.5384C68.1724 70.5384 67.8477 70.5204 67.3967 70.4843V67.4897ZM74.9012 62.7814V71.5126H76.7412C77.6612 69.9792 78.6354 68.3015 79.4652 66.9485C79.9884 66.0646 80.3492 65.3611 80.9264 64.2246H80.9625C80.8903 65.6497 80.8543 66.3893 80.8543 67.8144V71.5126H82.3696V62.7814H80.5115L77.7875 67.2913C77.1922 68.3015 76.9036 68.9149 76.3624 69.9792L76.3083 69.9612C76.3804 68.7164 76.4165 67.8325 76.4165 66.4615V62.7814H74.9012ZM83.7547 62.7814V64.0261H86.4787V71.5126H88.0662V64.0261H90.7902V62.7814H83.7547ZM98.973 67.4356C99.0091 67.2552 99.0271 67.0207 99.0271 66.696C99.0271 65.0905 98.2875 62.601 95.4192 62.601C92.8756 62.601 91.3242 64.6575 91.3242 67.2913C91.3242 69.9251 92.9297 71.711 95.6176 71.711C97.0067 71.711 97.9808 71.4043 98.54 71.1518L98.2514 70.0153C97.6741 70.2678 96.9706 70.4663 95.8341 70.4663C94.2286 70.4663 92.8756 69.5823 92.8395 67.4356H98.973ZM92.8575 66.2991C92.9838 65.1987 93.6693 63.7375 95.2929 63.7375C97.0788 63.7375 97.5118 65.3069 97.4937 66.2991H92.8575ZM101.568 62.7814V66.263C101.568 68.2113 101.478 69.438 100.666 70.0333C100.45 70.2137 100.107 70.34 99.8003 70.3941L99.9626 71.6389C100.774 71.6389 101.261 71.4404 101.694 71.0977C102.831 70.358 103.065 68.7164 103.065 66.263V64.0261H106.06V71.5126H107.648V62.7814H101.568ZM110.17 62.7814V71.4765C110.838 71.5487 111.649 71.6028 112.515 71.6028C113.796 71.6028 115.366 71.4043 116.322 70.5926C116.881 70.1235 117.242 69.4921 117.242 68.5902C117.242 66.263 115.167 65.6316 113.201 65.6316C112.732 65.6316 112.136 65.6677 111.758 65.7218V62.7814H110.17ZM111.74 66.8764C112.118 66.8042 112.461 66.7681 112.876 66.7681C114.067 66.7681 115.654 67.1109 115.654 68.6262C115.654 70.0694 114.103 70.4663 112.93 70.4663C112.407 70.4663 112.064 70.4482 111.74 70.3941V66.8764ZM125.162 70.0153C124.711 70.2137 124.116 70.4302 123.214 70.4302C121.482 70.4302 120.183 69.1855 120.183 67.165C120.183 65.3611 121.265 63.8638 123.268 63.8638C124.134 63.8638 124.729 64.0802 125.108 64.2787L125.469 63.07C125.036 62.8355 124.206 62.601 123.268 62.601C120.417 62.601 118.577 64.5673 118.577 67.2552C118.577 69.9251 120.291 71.711 122.925 71.711C124.098 71.711 125.018 71.4043 125.432 71.2059L125.162 70.0153ZM126.44 62.7814V64.0261H129.164V71.5126H130.752V64.0261H133.476V62.7814H126.44ZM134.816 71.5126C135.285 71.5487 136.313 71.6208 137.288 71.6208C139.001 71.6208 141.888 71.3322 141.888 69.0411C141.888 67.7784 140.95 67.0748 139.669 66.8944V66.8583C140.661 66.6419 141.491 65.9564 141.491 64.874C141.491 62.9437 139.073 62.6912 137.594 62.6912C136.584 62.6912 135.447 62.7814 134.816 62.8896V71.5126ZM136.349 63.8638C136.71 63.8277 137.035 63.7916 137.576 63.7916C139.164 63.7916 139.921 64.2065 139.921 65.0724C139.921 66.1187 138.713 66.4615 137.54 66.4615H136.349V63.8638ZM136.331 67.4897H137.486C138.983 67.4897 140.264 67.7603 140.264 69.0231C140.264 70.3039 138.677 70.5384 137.594 70.5384C137.107 70.5384 136.782 70.5204 136.331 70.4843V67.4897ZM147.588 62.601C145.189 62.601 143.259 64.3148 143.259 67.2191C143.259 69.9792 145.099 71.711 147.444 71.711C149.536 71.711 151.791 70.3039 151.791 67.0748C151.791 64.423 150.096 62.601 147.588 62.601ZM147.552 63.7916C149.428 63.7916 150.168 65.6497 150.168 67.1289C150.168 69.0953 149.031 70.5204 147.516 70.5204C145.965 70.5204 144.882 69.0772 144.882 67.165C144.882 65.5234 145.694 63.7916 147.552 63.7916ZM157.559 71.5126C158.028 71.5487 159.057 71.6208 160.031 71.6208C161.745 71.6208 164.631 71.3322 164.631 69.0411C164.631 67.7784 163.693 67.0748 162.412 66.8944V66.8583C163.404 66.6419 164.234 65.9564 164.234 64.874C164.234 62.9437 161.817 62.6912 160.338 62.6912C159.327 62.6912 158.191 62.7814 157.559 62.8896V71.5126ZM159.093 63.8638C159.454 63.8277 159.778 63.7916 160.319 63.7916C161.907 63.7916 162.665 64.2065 162.665 65.0724C162.665 66.1187 161.456 66.4615 160.283 66.4615H159.093V63.8638ZM159.075 67.4897H160.229C161.727 67.4897 163.007 67.7603 163.007 69.0231C163.007 70.3039 161.42 70.5384 160.338 70.5384C159.85 70.5384 159.526 70.5204 159.075 70.4843V67.4897ZM170.51 71.5126H172.08V66.6419C172.441 66.7321 172.874 66.7501 173.343 66.7501C174.876 66.7501 176.211 66.2991 177.059 65.4152C177.672 64.7838 177.997 63.9179 177.997 62.8175C177.997 61.7351 177.582 60.8511 176.932 60.2739C176.211 59.6244 175.074 59.2637 173.523 59.2637C172.26 59.2637 171.268 59.3719 170.51 59.4982V71.5126ZM172.08 60.6347C172.35 60.5625 172.874 60.5084 173.559 60.5084C175.273 60.5084 176.427 61.2841 176.427 62.9077C176.427 64.5493 175.273 65.4873 173.379 65.4873C172.855 65.4873 172.423 65.4513 172.08 65.3611V60.6347ZM183.245 62.601C180.845 62.601 178.915 64.3148 178.915 67.2191C178.915 69.9792 180.755 71.711 183.1 71.711C185.193 71.711 187.448 70.3039 187.448 67.0748C187.448 64.423 185.752 62.601 183.245 62.601ZM183.209 63.7916C185.085 63.7916 185.824 65.6497 185.824 67.1289C185.824 69.0953 184.688 70.5204 183.172 70.5204C181.621 70.5204 180.539 69.0772 180.539 67.165C180.539 65.5234 181.35 63.7916 183.209 63.7916ZM195.4 70.0153C194.949 70.2137 194.354 70.4302 193.452 70.4302C191.72 70.4302 190.421 69.1855 190.421 67.165C190.421 65.3611 191.504 63.8638 193.506 63.8638C194.372 63.8638 194.967 64.0802 195.346 64.2787L195.707 63.07C195.274 62.8355 194.444 62.601 193.506 62.601C190.656 62.601 188.816 64.5673 188.816 67.2552C188.816 69.9251 190.53 71.711 193.163 71.711C194.336 71.711 195.256 71.4043 195.671 71.2059L195.4 70.0153ZM203.381 70.0153C202.93 70.2137 202.334 70.4302 201.432 70.4302C199.701 70.4302 198.402 69.1855 198.402 67.165C198.402 65.3611 199.484 63.8638 201.487 63.8638C202.352 63.8638 202.948 64.0802 203.327 64.2787L203.687 63.07C203.254 62.8355 202.425 62.601 201.487 62.601C198.636 62.601 196.796 64.5673 196.796 67.2552C196.796 69.9251 198.51 71.711 201.144 71.711C202.316 71.711 203.236 71.4043 203.651 71.2059L203.381 70.0153ZM205.46 62.7814V71.5126H207.3C208.22 69.9792 209.194 68.3015 210.024 66.9485C210.547 66.0646 210.908 65.3611 211.485 64.2246H211.521C211.449 65.6497 211.413 66.3893 211.413 67.8144V71.5126H212.928V62.7814H211.07L208.346 67.2913C207.751 68.3015 207.462 68.9149 206.921 69.9792L206.867 69.9612C206.939 68.7164 206.975 67.8325 206.975 66.4615V62.7814H205.46ZM215.448 62.7814V71.5126H217.288C218.208 69.9792 219.183 68.3015 220.012 66.9485C220.536 66.0646 220.896 65.3611 221.474 64.2246H221.51C221.438 65.6497 221.401 66.3893 221.401 67.8144V71.5126H222.917V62.7814H221.059L218.335 67.2913C217.739 68.3015 217.451 68.9149 216.91 69.9792L216.855 69.9612C216.928 68.7164 216.964 67.8325 216.964 66.4615V62.7814H215.448Z" fill="#3F4291"/>
<defs>
<clipPath id="clip0_102_73">
<rect width="222.438" height="47.9393" fill="white" transform="translate(0.991211)"/>
</clipPath>
</defs>
</svg>
