<svg width="40" height="53" viewBox="0 0 40 53" fill="none" xmlns="http://www.w3.org/2000/svg">
<rect width="40" height="40" fill="#F39A2E"/>
<path d="M20.8763 51.4064C20.4964 52.0973 19.5036 52.0973 19.1237 51.4064L12.1545 38.7318C11.7881 38.0654 12.2703 37.25 13.0308 37.25L26.9692 37.25C27.7297 37.25 28.2119 38.0654 27.8455 38.7318L20.8763 51.4064Z" fill="#F39A2E"/>
<path fill-rule="evenodd" clip-rule="evenodd" d="M23.9574 17.8563C21.761 17.8563 23.9574 17.8527 23.9574 17.8527L17.4042 17.8623V13.9903H27.4715V11H16.2057C13.0565 11 12 12.6306 12 12.6306V19.5292C12 19.5292 13.1738 20.8052 16.4301 20.8052C18.2761 20.8052 22.7083 20.8052 22.7083 20.8052V24.8264H12.0874V28H24.3904C26.805 28 28 26.5863 28 26.5863V19.4162C28 19.4162 26.985 17.8563 23.9575 17.8563H23.9574Z" fill="white"/>
</svg>
