<svg width="15" height="12" viewBox="0 0 15 12" fill="none" xmlns="http://www.w3.org/2000/svg">
<path d="M7.82356 1.51156L11.3207 5.00872H0.885417C0.854852 5.00872 0.824656 5.01028 0.794885 5.01332C0.348408 5.05866 0 5.4357 0 5.89413C0 6.38317 0.396412 6.77955 0.885417 6.77955H11.3207L7.82356 10.2767C7.47782 10.6225 7.47782 11.1831 7.82356 11.5289C8.16936 11.8747 8.72994 11.8747 9.07575 11.5289L14.0844 6.52023C14.4302 6.17449 14.4302 5.61385 14.0844 5.26804L9.07575 0.259392C9.07036 0.253988 9.06491 0.248675 9.05939 0.243441C9.02085 0.206798 8.97984 0.1743 8.93684 0.145938C8.69134 -0.0161495 8.38293 -0.0431583 8.11645 0.0648908C8.00992 0.108113 7.91004 0.172947 7.82356 0.259392C7.81817 0.264797 7.81286 0.270251 7.80762 0.275755C7.47789 0.62264 7.4832 1.17119 7.82356 1.51156Z" fill="black"/>
</svg>
