<svg width="15" height="12" viewBox="0 0 15 12" fill="none" xmlns="http://www.w3.org/2000/svg">
<path d="M6.52019 10.4885L3.02301 6.99131L13.4583 6.99131C13.4889 6.99131 13.5191 6.98975 13.5489 6.98671C13.9953 6.94138 14.3437 6.56433 14.3437 6.1059C14.3437 5.61686 13.9473 5.22048 13.4583 5.22048L3.02301 5.22048L6.52019 1.7233C6.86593 1.37749 6.86593 0.816912 6.52019 0.471104C6.17438 0.125367 5.61381 0.125367 5.268 0.471104L0.259304 5.4798C-0.086433 5.82554 -0.0864329 6.38618 0.259305 6.73199L5.268 11.7406C5.27339 11.746 5.27884 11.7514 5.28436 11.7566C5.3229 11.7932 5.36391 11.8257 5.40691 11.8541C5.65241 12.0162 5.96082 12.0432 6.2273 11.9351C6.33383 11.8919 6.43371 11.8271 6.52019 11.7406C6.52558 11.7352 6.53089 11.7298 6.53613 11.7243C6.86586 11.3774 6.86055 10.8288 6.52019 10.4885Z" fill="black"/>
</svg>
