<svg width="23" height="23" viewBox="0 0 23 23" fill="none" xmlns="http://www.w3.org/2000/svg">
<path d="M22.6503 20.9494L16.9804 15.2561C18.4382 13.5829 19.237 11.4778 19.237 9.28624C19.237 4.16589 14.922 0 9.61849 0C4.31494 0 0 4.16589 0 9.28624C0 14.4066 4.31494 18.5725 9.61849 18.5725C11.6095 18.5725 13.5069 17.9927 15.1291 16.8921L20.842 22.6286C21.0808 22.868 21.402 23 21.7462 23C22.0719 23 22.381 22.8801 22.6156 22.6621C23.1141 22.199 23.13 21.431 22.6503 20.9494ZM9.61849 2.4225C13.5387 2.4225 16.7278 5.50149 16.7278 9.28624C16.7278 13.071 13.5387 16.15 9.61849 16.15C5.69833 16.15 2.50917 13.071 2.50917 9.28624C2.50917 5.50149 5.69833 2.4225 9.61849 2.4225Z" fill="#059A94"/>
</svg>
