<svg width="8" height="10" viewBox="0 0 8 10" fill="none" xmlns="http://www.w3.org/2000/svg">
<path d="M6.97422 5.45433L4.60089 7.89246L4.60089 0.617284C4.60089 0.595975 4.59984 0.574923 4.59777 0.554168C4.567 0.242899 4.31112 -1.61246e-07 4.00001 -1.74845e-07C3.66813 -1.89352e-07 3.39912 0.276365 3.39912 0.617284L3.39912 7.89246L1.02577 5.45433C0.791089 5.21329 0.410657 5.21329 0.175976 5.45433C-0.0586579 5.69542 -0.0586579 6.08623 0.175976 6.32732L3.57511 9.81922C3.80974 10.0603 4.19022 10.0603 4.42491 9.81922L7.82401 6.32732C7.82767 6.32357 7.83128 6.31976 7.83483 6.31591C7.8597 6.28905 7.88175 6.26046 7.901 6.23048C8.011 6.05932 8.02933 5.84431 7.956 5.65853C7.92667 5.58426 7.88267 5.51463 7.82401 5.45433C7.82034 5.45058 7.81664 5.44688 7.8129 5.44322C7.57749 5.21334 7.20522 5.21705 6.97422 5.45433Z" fill="#008D84"/>
</svg>
